<svg width="25" height="25" viewBox="0 0 25 25" fill="none" xmlns="http://www.w3.org/2000/svg">
<path d="M16.4375 24.875H8.5625C8.11495 24.875 7.68572 24.6972 7.36926 24.3807C7.05279 24.0643 6.875 23.6351 6.875 23.1875V18.125H1.8125C1.36495 18.125 0.935725 17.9472 0.619257 17.6307C0.30279 17.3143 0.125 16.8851 0.125 16.4375V8.5625C0.125 8.11495 0.30279 7.68572 0.619257 7.36926C0.935725 7.05279 1.36495 6.875 1.8125 6.875H6.875V1.8125C6.875 1.36495 7.05279 0.935725 7.36926 0.619257C7.68572 0.30279 8.11495 0.125 8.5625 0.125H16.4375C16.8851 0.125 17.3143 0.30279 17.6307 0.619257C17.9472 0.935725 18.125 1.36495 18.125 1.8125V6.875H23.1875C23.6351 6.875 24.0643 7.05279 24.3807 7.36926C24.6972 7.68572 24.875 8.11495 24.875 8.5625V16.4375C24.875 16.8851 24.6972 17.3143 24.3807 17.6307C24.0643 17.9472 23.6351 18.125 23.1875 18.125H18.125V23.1875C18.125 23.6351 17.9472 24.0643 17.6307 24.3807C17.3143 24.6972 16.8851 24.875 16.4375 24.875ZM9.125 22.625H15.875V15.875H22.625V9.125H15.875V2.375H9.125V9.125H2.375V15.875H9.125V22.625Z" fill="#04B6B1"/>
</svg>
