<svg width="83" height="84" viewBox="0 0 83 84" fill="none" xmlns="http://www.w3.org/2000/svg">
<path d="M56.1282 18.7038C55.6738 16.1171 55.317 13.5295 54.9845 10.9418L54.8636 9.97168L54.8041 9.48613L54.7895 9.36523C54.7846 9.32526 54.7807 9.28041 54.7729 9.25408L54.7339 9.07176C54.6315 8.59011 54.4473 8.14551 54.1977 7.75648C53.9451 7.36843 53.6351 7.03108 53.2773 6.77173C52.9194 6.51336 52.5304 6.32128 52.1297 6.21403C51.729 6.10581 51.3253 6.06973 50.9314 6.10776L49.1208 6.27351L47.1796 6.44316C46.5322 6.49873 45.8858 6.55333 45.2384 6.60306C42.6498 6.81171 40.0621 6.99306 37.4735 7.15296C36.1797 7.23583 34.8849 7.307 33.591 7.37916L33.1055 7.40646L32.8627 7.41913L32.8023 7.42206L32.773 7.42401L32.7613 7.42693L32.7165 7.43766C32.6862 7.44448 32.657 7.44936 32.6268 7.45326C32.5965 7.45716 32.5663 7.45813 32.539 7.47178C32.4834 7.49323 32.4259 7.50201 32.3703 7.52053C32.151 7.59268 31.9579 7.71846 31.7863 7.85983C31.6147 8.00316 31.4714 8.17768 31.3671 8.36586C31.2637 8.55501 31.1945 8.75098 31.1623 8.94988C31.1418 9.04836 31.1438 9.15073 31.1409 9.25116C31.1448 9.27748 31.1467 9.30283 31.1477 9.32818L31.1487 9.36621V9.38571V9.39546L31.1496 9.42178L31.1682 9.90733L31.2306 11.8486C31.3154 14.4372 31.3739 17.0268 31.4226 19.6154C31.4373 20.2628 31.4431 20.9102 31.4529 21.5576V21.5878L31.4519 21.6395L31.449 21.7448L31.4421 21.9554L31.4226 22.3756C31.4187 22.516 31.3992 22.6555 31.3807 22.7949C31.3622 22.9343 31.3417 23.0747 31.3212 23.2141C31.2861 23.494 31.2091 23.7679 31.1428 24.0429C31.1058 24.1794 31.0775 24.3188 31.0287 24.4514C30.9839 24.585 30.9371 24.7195 30.8893 24.8521C30.1152 26.9845 28.5435 28.7853 26.5476 29.8539C26.2951 29.9816 26.0416 30.1084 25.7813 30.2205C25.5171 30.3238 25.2509 30.4213 24.9837 30.514C24.7117 30.592 24.4368 30.6641 24.1618 30.7304C23.8859 30.7909 23.6051 30.8289 23.3253 30.8708C23.1858 30.8942 23.0454 30.903 22.905 30.9118L22.4838 30.9342C22.1504 30.9508 22.0568 30.943 21.8813 30.9449L20.9102 30.9469L17.0258 30.9274C15.731 30.9118 14.4362 30.903 13.1414 30.8815L9.54071 30.8182C9.34864 30.8172 9.16339 30.8474 8.98106 30.9137C8.79874 30.979 8.61934 31.0775 8.46139 31.2111C8.30246 31.3437 8.16791 31.5085 8.06261 31.6898C7.96024 31.8731 7.89004 32.0749 7.85786 32.3002L7.84909 32.3421L7.84421 32.3635C7.84324 32.3674 7.84226 32.3694 7.84129 32.3762L7.84031 32.4064L7.83154 32.6492L7.81204 33.1348L7.77206 34.1059L7.69114 36.0481C7.62971 37.3429 7.57316 38.6376 7.50101 39.9324C7.43569 41.2272 7.35671 42.5221 7.28066 43.8178C7.19681 45.1126 7.11686 46.4074 7.02229 47.7032C6.97744 48.3506 6.93064 48.998 6.87994 49.6454L6.75709 51.2912C6.74734 51.6627 6.80779 52.0419 6.94136 52.4105C7.07494 52.779 7.28456 53.132 7.55561 53.4469C7.82569 53.7628 8.16304 54.0329 8.54524 54.2415L8.68954 54.3225C8.73926 54.3449 8.79094 54.3634 8.84164 54.3858L8.99569 54.4521C9.04639 54.4785 9.10196 54.4853 9.15461 54.5038L9.31646 54.5536C9.34376 54.5614 9.37106 54.5721 9.39836 54.5789L9.48221 54.5945L9.65186 54.6286L9.73766 54.6471C9.75326 54.6501 9.76204 54.654 9.78446 54.6559L9.84491 54.6628C11.1397 54.7963 12.4355 54.9406 13.7303 55.0927C16.3209 55.4018 18.9114 55.7372 21.503 56.1701C18.9163 56.6274 16.3287 56.9862 13.741 57.3196C12.4472 57.4834 11.1534 57.6394 9.85954 57.7857L9.79909 57.7925C9.78056 57.7954 9.74936 57.7954 9.72499 57.7974L9.56801 57.8042L9.25211 57.8159L9.09319 57.8198C9.04054 57.8198 8.98789 57.8149 8.93426 57.812L8.61641 57.7905C8.51014 57.7808 8.40289 57.7798 8.29759 57.7603L7.98071 57.7077C7.87541 57.6891 7.76816 57.6716 7.66286 57.6492L7.34989 57.5653C6.51529 57.3372 5.71579 56.9443 5.00404 56.4187C4.29131 55.8922 3.67219 55.2244 3.18371 54.457C2.69426 53.6897 2.35496 52.8132 2.17849 51.9025L2.14241 51.7319C2.13071 51.6744 2.12584 51.6168 2.11804 51.5603L2.07709 51.2142L2.05856 51.0406L2.04394 50.8837L2.02346 50.6409L1.94059 49.6707C1.88404 49.0233 1.83139 48.3769 1.78069 47.7295C1.67441 46.4357 1.58179 45.1409 1.48624 43.8471C1.39849 42.5533 1.30684 41.2584 1.22981 39.9646C1.14596 38.6708 1.07674 37.376 1.00361 36.0822L0.904163 34.141L0.855413 33.1699L0.832014 32.6843L0.821288 32.4415L0.820312 32.4113V32.3625L0.821288 32.2621L0.824213 32.0613C0.832988 30.9937 1.03871 29.9095 1.43651 28.8974C1.83236 27.8844 2.42809 26.9533 3.16324 26.1508C3.90034 25.3494 4.78564 24.6776 5.77234 24.1872C6.75806 23.6968 7.84226 23.3887 8.94011 23.2824L9.35254 23.2531C9.48416 23.2444 9.65284 23.2356 9.70841 23.2346L10.194 23.219L11.1651 23.1927L13.1063 23.142C14.4011 23.1088 15.6949 23.0884 16.9897 23.0601L20.8731 23.0045L21.8442 22.9967C21.9915 22.9948 22.2225 22.9957 22.2118 22.987C22.2333 22.984 22.2537 22.9831 22.2752 22.9831C22.2966 22.984 22.3181 22.986 22.3376 22.9772C22.3766 22.9645 22.4185 22.9665 22.4585 22.9567C22.4965 22.9411 22.5345 22.9314 22.5755 22.9255C22.6116 22.9051 22.6486 22.8904 22.6876 22.8817C22.7237 22.8631 22.7568 22.8397 22.7968 22.828C22.9411 22.752 23.0747 22.6467 23.1858 22.5219C23.298 22.3971 23.3818 22.2528 23.4432 22.1036C23.4501 22.0851 23.4588 22.0666 23.4686 22.048C23.4813 22.0305 23.4774 22.0081 23.4842 21.9895C23.49 21.9496 23.5183 21.9145 23.5154 21.8706C23.5173 21.8501 23.5212 21.8296 23.5261 21.8092C23.531 21.7887 23.5398 21.7692 23.5359 21.7468C23.5359 21.7253 23.5368 21.7039 23.5388 21.6824L23.5437 21.6502L23.5466 21.6337L23.5485 21.6249V21.5947C23.5524 20.9473 23.5524 20.2999 23.5612 19.6525C23.5856 17.0629 23.6207 14.4733 23.6811 11.8846L23.726 9.94243L23.7396 9.45688L23.7484 9.26871L23.7601 9.06493L23.7894 8.65738C23.8498 8.11528 23.9463 7.57416 24.1033 7.04961C24.4085 5.99953 24.9077 5.00991 25.5648 4.15191C26.22 3.29293 27.0273 2.55876 27.938 1.99131C28.8477 1.42483 29.8646 1.02606 30.9127 0.832032C31.174 0.784257 31.4392 0.754033 31.7015 0.721858C31.8331 0.703333 31.9647 0.699433 32.0964 0.694558L32.4912 0.683833L32.6882 0.680908H32.7379L32.7691 0.681883L32.8296 0.684808L33.0723 0.694558L33.5579 0.716983C34.8527 0.776458 36.1475 0.835932 37.4423 0.907107C40.0319 1.04361 42.6225 1.20058 45.2121 1.38486C45.8595 1.42873 46.5069 1.47651 47.1543 1.52623L49.0965 1.67736L50.0676 1.75633L50.5531 1.79631L50.831 1.82166L51.1693 1.85871C52.0663 1.96986 52.9409 2.24091 53.7219 2.66113C54.5028 3.08038 55.197 3.63418 55.7577 4.28938C56.3202 4.94263 56.7512 5.69338 57.0281 6.48606C57.3069 7.27776 57.4308 8.11138 57.4005 8.92161L57.3879 9.22483C57.3869 9.27943 57.381 9.31453 57.3771 9.35645L57.3635 9.47833L57.3089 9.96388L57.1968 10.935C56.8916 13.5217 56.5581 16.1122 56.1282 18.7038Z" fill="#649EFF"/>
<path d="M44.4705 37.5514C44.1146 37.7406 43.7568 37.92 43.4067 38.115C43.0528 38.3012 42.7047 38.4981 42.3586 38.6941C41.6673 39.089 40.9878 39.4975 40.3287 39.9285C39.6666 40.3546 39.0261 40.807 38.403 41.273C38.091 41.5051 37.7888 41.7488 37.4865 41.9887C37.1901 42.2373 36.8937 42.482 36.609 42.7394C36.0357 43.2474 35.4878 43.7768 34.9749 44.3306C34.466 44.8834 33.9882 45.4431 33.5661 46.0388L33.4052 46.2591C33.3525 46.3333 33.3048 46.4103 33.2541 46.4863C33.1556 46.6394 33.0522 46.7866 32.9557 46.9397L32.6778 47.4038C32.6301 47.4798 32.5872 47.5588 32.5452 47.6388L32.4185 47.8757L32.2917 48.1117C32.2508 48.1916 32.2147 48.2735 32.1757 48.3534C32.0997 48.5153 32.0168 48.6723 31.9456 48.8361L31.735 49.3275C31.6658 49.4913 31.6083 49.6609 31.5439 49.8267C31.3011 50.4965 31.0847 51.1741 30.9258 51.8761C30.7639 52.5762 30.6225 53.2811 30.5299 54.0055L30.4919 54.2756L30.4617 54.5486L30.4012 55.0956C30.3681 55.4748 30.3281 55.8522 30.3008 56.2305C30.2774 56.6088 30.2423 56.9851 30.2286 57.3634L30.1994 57.9289C30.1896 58.1171 30.1867 58.3062 30.1799 58.4944C30.1341 60.0027 30.1565 61.5101 30.2364 63.0438C30.2706 63.8082 30.3193 64.5833 30.371 65.3613L30.5387 67.7228C30.5943 68.5155 30.6557 69.3169 30.7044 70.1223L30.8624 72.4515L30.9111 73.0161L30.9365 73.2764L30.9492 73.4012L30.9638 73.5182C31.0018 73.8273 31.0486 74.0817 31.1032 74.2758C31.1578 74.4708 31.2153 74.6034 31.2748 74.6989C31.2924 74.7204 31.3041 74.7457 31.3197 74.7662C31.3372 74.7847 31.3479 74.8081 31.3665 74.8266C31.3752 74.8354 31.384 74.8452 31.3918 74.8549C31.3996 74.8647 31.4045 74.8744 31.4181 74.8871C31.4415 74.9105 31.461 74.9368 31.4835 74.9612C31.6658 75.1542 31.9017 75.3102 32.1543 75.4087C32.4078 75.5062 32.671 75.5481 32.9089 75.5277L35.2265 75.4545L37.6162 75.3902C40.8025 75.3034 43.9898 75.241 47.1761 75.1893L49.5658 75.1572L50.7612 75.1425L50.9055 75.1406C50.9191 75.1377 50.9318 75.1357 50.9454 75.1338C50.9718 75.1299 50.9981 75.1279 51.0244 75.1289C51.0517 75.1338 51.0751 75.1191 51.1005 75.1152C51.1258 75.1094 51.1502 75.1065 51.1765 75.1045C51.3715 75.0597 51.5529 74.97 51.7157 74.8452C51.8756 74.7194 52.0209 74.5605 52.1037 74.3772C52.1915 74.1968 52.2441 74.0106 52.2519 73.799C52.2539 73.7863 52.2558 73.7727 52.2578 73.76V73.6167L52.2568 73.3183L52.2558 72.7206L52.2529 71.5253L52.2675 66.7449L52.3085 61.9644C52.3134 61.749 52.3075 61.63 52.328 61.2254C52.3368 61.0548 52.3475 60.8841 52.3592 60.7145C52.3719 60.5448 52.404 60.3742 52.4284 60.2046C52.4557 60.0349 52.482 59.8653 52.5152 59.6976C52.5552 59.5308 52.5981 59.3641 52.6419 59.1984C52.7229 58.8639 52.8447 58.5422 52.9666 58.2214C52.9978 58.1415 53.028 58.0615 53.0612 57.9825L53.1704 57.7505C53.2445 57.5964 53.3205 57.4424 53.3976 57.2893C53.4346 57.2123 53.4785 57.1382 53.5224 57.0651L53.655 56.8457C53.7447 56.7004 53.8334 56.5542 53.9299 56.4138C54.0303 56.2763 54.1327 56.1398 54.237 56.0052C54.3414 55.8707 54.4437 55.7342 54.5607 55.6104C54.7908 55.3598 55.0151 55.1043 55.2735 54.883C56.2748 53.9665 57.4809 53.2752 58.7805 52.8784C59.1081 52.7926 59.4367 52.7029 59.7702 52.6444C59.9369 52.6181 60.1046 52.5937 60.2723 52.5713L60.5238 52.5391C60.6077 52.5303 60.6915 52.5284 60.7754 52.5235C60.9431 52.5147 61.1108 52.5089 61.2785 52.504L61.4043 52.5011L61.4667 52.5001L61.5066 52.5011L61.6558 52.504L62.2535 52.5177C63.8476 52.5508 65.4408 52.5966 67.0349 52.6405C68.629 52.6854 70.2222 52.74 71.8163 52.7936L73.0116 52.8384L73.6093 52.8609L73.9077 52.8716L73.9827 52.8745L74.0198 52.8755H74.0344H74.0939C74.4127 52.893 74.7296 52.8521 75.0387 52.7341L75.0689 52.7253L75.0962 52.7107L75.1518 52.6824C75.1888 52.6639 75.2278 52.6483 75.2668 52.6317C75.3009 52.6083 75.337 52.5859 75.3731 52.5645C75.4092 52.542 75.4511 52.5264 75.4813 52.4972C75.5447 52.4416 75.6256 52.4026 75.6841 52.3383C75.7163 52.309 75.7494 52.2817 75.7836 52.2534C75.8157 52.2242 75.8411 52.1891 75.8723 52.1579C76.1092 51.9024 76.3042 51.5953 76.4056 51.2453C76.4154 51.2005 76.4271 51.1566 76.4397 51.1127L76.4602 51.0464C76.468 51.024 76.467 51.0006 76.4709 50.9772C76.4768 50.9304 76.4846 50.8846 76.4943 50.8378L76.5012 50.8026C76.5031 50.788 76.507 50.7861 76.508 50.7558L76.5158 50.6067L76.5772 49.4113L76.7079 47.0206C76.8882 43.8324 77.092 40.6451 77.327 37.4569C77.445 35.8627 77.5688 34.2686 77.7024 32.6745L77.7277 32.3752L77.7336 32.3001C77.7355 32.2757 77.7384 32.2474 77.7384 32.2328L77.7443 32.1256L77.7599 31.9081L77.7638 31.8535L77.7609 31.7999L77.756 31.6907C77.7531 31.6176 77.7511 31.5445 77.7501 31.4704L77.7209 31.252C77.7092 31.1798 77.7082 31.1028 77.6887 31.0316L77.637 30.8142L77.6127 30.704C77.6029 30.6679 77.5883 30.6328 77.5766 30.5977L77.5035 30.3823C77.483 30.3072 77.444 30.2428 77.4138 30.1717L77.3202 29.9601L77.2041 29.7592C77.1632 29.6929 77.132 29.6188 77.0823 29.5584L76.9458 29.3663C76.9224 29.3341 76.9009 29.3 76.8765 29.2698L76.7985 29.1811C76.39 28.6936 75.8625 28.2841 75.2522 28.0003C75.1752 27.9662 75.0962 27.9389 75.0182 27.9077C74.9392 27.8785 74.8612 27.8404 74.7793 27.818L74.5326 27.7498C74.4498 27.7264 74.3669 27.6981 74.2811 27.6883L74.0237 27.6435L73.893 27.6211L73.7439 27.6055L73.1462 27.5401C71.5521 27.3598 69.9579 27.1813 68.3628 26.959C69.955 26.7221 71.5482 26.5291 73.1403 26.3341L73.738 26.2639L73.8872 26.2463L74.0549 26.2366L74.3952 26.219C74.5092 26.2093 74.6223 26.218 74.7374 26.2229L75.0816 26.2424C75.1966 26.2502 75.3097 26.2736 75.4238 26.2892C75.5379 26.3077 75.6539 26.3233 75.768 26.3467C76.6786 26.5427 77.5571 26.9581 78.3166 27.5528L78.4599 27.664C78.5067 27.702 78.5496 27.7449 78.5945 27.7849L78.8616 28.0335C78.9543 28.1144 79.0284 28.21 79.1122 28.2997L79.356 28.5766L79.5744 28.8739C79.6446 28.9753 79.7235 29.0719 79.783 29.1811L79.9712 29.5028C80.0014 29.5574 80.0346 29.6101 80.0628 29.6656L80.1418 29.8353L80.2978 30.1785C80.3514 30.2926 80.3846 30.4144 80.4285 30.5324C80.4694 30.6523 80.5113 30.7713 80.5484 30.8932L80.6361 31.2627L80.6781 31.4489L80.6985 31.5425L80.7112 31.6371L80.76 32.0164L80.7824 32.2075L80.798 32.3644L80.8263 32.6628C80.9745 34.2559 81.1129 35.8481 81.2455 37.4413C81.5097 40.6266 81.7428 43.8129 81.9534 46.9992L82.1064 49.3889L82.1796 50.5833L82.1883 50.7324C82.1903 50.751 82.1903 50.7987 82.1903 50.8348V50.9489C82.1903 51.101 82.1893 51.2531 82.1864 51.4062C82.1835 51.4822 82.1864 51.5592 82.1776 51.6353L82.1552 51.8644C82.1386 52.0175 82.122 52.1696 82.1025 52.3227C81.7359 54.7689 80.1945 57.0309 77.9851 58.276C76.8843 58.9 75.6256 59.2822 74.3532 59.3622L74.1144 59.3787L74.0169 59.3846L73.9418 59.3885L73.6434 59.4021L73.0458 59.4294L71.8504 59.485C70.2573 59.5533 68.6641 59.6225 67.071 59.682C65.4778 59.7405 63.8847 59.8019 62.2915 59.8487L61.6938 59.8682L61.5447 59.8731L61.5096 59.874L61.4979 59.877L61.4745 59.8818C61.4433 59.8887 61.4121 59.8926 61.3809 59.8955C61.3653 59.8974 61.3497 59.8955 61.3341 59.8994C61.3194 59.9043 61.3048 59.9091 61.2902 59.914C61.2609 59.9228 61.2317 59.9296 61.2015 59.9345C61.1937 59.9355 61.1868 59.9364 61.179 59.9384L61.1586 59.9481C61.1449 59.954 61.1313 59.9598 61.1166 59.9657C61.0884 59.9764 61.0601 59.9842 61.0318 59.9901C60.8144 60.0827 60.6174 60.2221 60.4575 60.3957C60.4098 60.4317 60.3854 60.4893 60.3454 60.5312C60.323 60.5507 60.3123 60.5799 60.2976 60.6043C60.283 60.6297 60.2664 60.6531 60.2489 60.6755C60.2362 60.7008 60.2274 60.7291 60.2128 60.7535C60.206 60.7662 60.1992 60.7779 60.1914 60.7905C60.1836 60.8022 60.1748 60.8139 60.1728 60.8286C60.165 60.8559 60.1553 60.8822 60.1436 60.9075C60.1377 60.9202 60.1319 60.9329 60.1251 60.9446C60.1212 60.9582 60.1202 60.9719 60.1163 60.9855C60.1046 61.0401 60.0773 61.0889 60.0773 61.1454C60.0734 61.1727 60.0666 61.1991 60.0578 61.2254C60.0568 61.2537 60.0578 61.2819 60.0549 61.3092C60.0549 61.3375 60.0432 61.3629 60.0461 61.3921C60.049 61.4214 60.051 61.4496 60.05 61.4779C60.0441 61.4711 60.051 61.7499 60.0549 61.9332L60.1407 66.7137L60.2001 71.4941L60.2089 72.6894L60.2128 73.2871L60.2148 73.5855L60.2157 73.7415L60.2079 74.0008C60.1767 75.3824 59.8296 76.7766 59.1939 78.0159C58.5641 79.26 57.6408 80.3393 56.5361 81.1778C55.4314 82.0153 54.1327 82.6159 52.7648 82.886C52.5932 82.9152 52.4216 82.9435 52.25 82.9689C52.0784 82.9923 51.9058 83.0235 51.7342 83.0303C51.5616 83.042 51.3891 83.0508 51.2165 83.0576L50.9581 83.0673H50.8031L49.6077 83.0644L47.217 83.0537C44.0298 83.0313 40.8425 82.9991 37.6552 82.9416L35.2645 82.8996L32.8017 82.8421C32.124 82.8216 31.4532 82.7241 30.8078 82.5535C30.1614 82.3829 29.5403 82.1372 28.9543 81.8301C27.7833 81.2158 26.7489 80.3461 25.9513 79.2814C25.8528 79.1478 25.7583 79.0104 25.6647 78.8739C25.5711 78.7374 25.4804 78.5804 25.3917 78.4332C25.3029 78.283 25.2259 78.127 25.146 77.972C25.0689 77.817 25.0017 77.658 24.9324 77.5011C24.6672 76.8673 24.5005 76.2306 24.3972 75.6456C24.2938 75.0587 24.2499 74.5195 24.2285 74.0349L24.2207 73.8536L24.2158 73.68C24.2119 73.5621 24.21 73.4538 24.209 73.3437L24.207 72.7138L24.2441 70.2646L24.2958 67.8846C24.326 66.2876 24.3738 64.6593 24.4683 63.0038C24.5171 62.178 24.5863 61.3434 24.6663 60.5097C24.7131 60.0915 24.7521 59.6751 24.8106 59.2569L24.8934 58.6309C24.9217 58.4223 24.9558 58.2146 24.987 58.0059C25.1099 57.1733 25.2669 56.3455 25.4375 55.5246C25.5223 55.1141 25.6198 54.7065 25.7105 54.298C25.7592 54.0913 25.8148 53.8788 25.8675 53.6701L25.9484 53.3562L26.0381 53.0422C26.2701 52.2066 26.5529 51.374 26.8815 50.5569C27.2052 49.7399 27.5913 48.9384 28.0242 48.1663C28.4541 47.3921 28.9455 46.6501 29.4857 45.952L29.6885 45.6907C29.7548 45.603 29.824 45.5172 29.8971 45.4343L30.3261 44.9341C30.4724 44.7713 30.6245 44.6133 30.7746 44.4544C30.8507 44.3755 30.9238 44.2945 31.0018 44.2185L31.2378 43.9923C31.3967 43.8431 31.5478 43.6871 31.7126 43.5467L32.2011 43.1206C32.3629 42.9793 32.5374 42.8515 32.7042 42.717C32.8719 42.5834 33.0405 42.4508 33.2131 42.3299C33.8917 41.8239 34.6005 41.3705 35.3201 40.9483C36.0406 40.5271 36.7758 40.142 37.5255 39.7988C38.2743 39.4527 39.0309 39.1368 39.7992 38.8618C41.331 38.3002 42.8919 37.8644 44.4705 37.5514Z" fill="#649EFF"/>
<path d="M23.821 47.6027C23.7283 47.3424 23.6386 47.0801 23.5567 46.8149C23.4739 46.5497 23.4017 46.2816 23.3266 46.0125C23.2906 45.8779 23.2574 45.7424 23.2252 45.6059C23.1921 45.4704 23.1609 45.3339 23.1326 45.1964L23.0458 44.784L22.9698 44.3686C22.7758 43.2571 22.6919 42.1115 22.7202 40.9434C22.7465 40.3604 22.7845 39.7695 22.8811 39.1797C22.9201 38.8833 22.9815 38.5878 23.0419 38.2914C23.0692 38.1423 23.1121 37.997 23.1482 37.8488C23.1872 37.7016 23.2213 37.5524 23.2652 37.4052C23.6104 36.2293 24.1281 35.0661 24.8262 33.9907L25.1011 33.5958C25.1938 33.4642 25.2844 33.3306 25.3878 33.2068C25.5896 32.9562 25.7856 32.6969 26.0069 32.4629L26.3355 32.1051C26.4476 31.9881 26.5656 31.8798 26.6816 31.7658C26.7986 31.6546 26.9146 31.5396 27.0346 31.4313L27.4031 31.1174C28.3966 30.2886 29.4935 29.6013 30.6323 29.0514C30.7747 28.9821 30.917 28.909 31.0603 28.8447L31.4923 28.6584L31.9271 28.4761C32.0714 28.4176 32.2138 28.3698 32.3571 28.3162C32.6437 28.2138 32.9304 28.1017 33.2209 28.0101L33.6558 27.8667C33.8001 27.818 33.9522 27.78 34.0994 27.7361L34.5469 27.6103L34.9915 27.4992C35.2899 27.4221 35.5824 27.3597 35.8778 27.2944C36.4667 27.1677 37.0478 27.0682 37.624 26.9727C39.9211 26.608 42.0993 26.4345 44.0668 26.1429C44.3096 26.1049 44.5543 26.0679 44.7903 26.0259L45.4738 25.8904C45.5878 25.867 45.7019 25.8524 45.815 25.8231L46.1543 25.7422C46.3795 25.6857 46.6067 25.6408 46.83 25.5774C47.2765 25.4458 47.725 25.3298 48.1667 25.1767L48.4992 25.0695L48.6649 25.0149L48.8297 24.9534L49.4869 24.7087C52.9793 23.3457 56.266 21.2241 59.3607 18.6949L59.4085 18.6559C61.0981 17.2753 63.5873 17.5259 64.9689 19.2156C65.4652 19.823 65.7499 20.5289 65.8337 21.2543L65.8639 21.5107L65.8883 21.734L65.9302 22.1659C65.9566 22.4506 65.98 22.7324 66.0014 23.0132C66.0443 23.5738 66.0736 24.1305 66.095 24.6873C66.1369 25.7997 66.1525 26.9112 66.1233 28.0247C66.0979 29.1381 66.0414 30.2526 65.939 31.3699C65.8903 31.9286 65.8308 32.4873 65.7616 33.0469C65.6914 33.6056 65.6056 34.1662 65.5159 34.7259C65.1454 36.9645 64.5828 39.2109 63.7355 41.4202C63.2987 42.521 62.8083 43.6169 62.197 44.6757C61.5983 45.7375 60.8885 46.7661 60.0676 47.7246C59.659 48.2052 59.2115 48.6606 58.7455 49.0964C58.5037 49.3089 58.2706 49.5254 58.0171 49.7243C57.8914 49.8247 57.7695 49.9281 57.6398 50.0236L57.2498 50.3083L57.1513 50.3795L57.0441 50.4516L56.8286 50.5959C56.6863 50.6905 56.5371 50.7929 56.4113 50.8563L55.6255 51.2872C55.3622 51.4364 55.1048 51.5514 54.8464 51.6762C54.5881 51.7981 54.3316 51.9258 54.0723 52.0419C51.9868 52.9613 49.8271 53.6272 47.6422 54.0445C45.4552 54.4521 43.2391 54.6003 41.0619 54.4872C38.8857 54.3672 36.7426 53.9899 34.7341 53.2908C36.8538 53.1231 38.8974 52.8033 40.8649 52.3061C42.8315 51.8137 44.722 51.1595 46.516 50.3571C48.3071 49.5459 50.0046 48.5923 51.5695 47.514C51.7654 47.3794 51.9536 47.2351 52.1457 47.0976C52.3348 46.9582 52.5337 46.8207 52.7014 46.6784L53.227 46.2621C53.3245 46.1909 53.3781 46.1295 53.4424 46.0661L53.537 45.9725L53.5848 45.9267L53.6365 45.8721C53.9173 45.5864 54.1815 45.2832 54.434 44.9692C54.6797 44.6465 54.9147 44.314 55.135 43.9659C56.0077 42.5658 56.657 40.9395 57.1221 39.2011C57.592 37.4607 57.8875 35.6141 58.0698 33.7304C58.1137 33.2585 58.1536 32.7856 58.1809 32.3079C58.2121 31.8321 58.2394 31.3533 58.255 30.8736C58.2736 30.3939 58.2814 29.9123 58.2872 29.4297C58.294 28.947 58.295 28.4644 58.2872 27.9798C58.2697 27.0117 58.2414 26.0415 58.1819 25.0763C58.1517 24.5937 58.1156 24.112 58.0786 23.6352C58.0591 23.3973 58.0376 23.1604 58.0142 22.9274L57.9781 22.5832L57.943 22.2868L64.4161 24.8452C62.6133 26.3223 60.6955 27.7088 58.6187 28.909C58.1078 29.2191 57.5686 29.4921 57.0392 29.7777C56.7711 29.9162 56.4971 30.0468 56.227 30.1804L55.8195 30.3803L55.4041 30.5685L54.5686 30.9341L53.7164 31.2714C53.5741 31.326 53.4337 31.3855 53.2894 31.4362L52.8555 31.5893C52.5649 31.6887 52.2793 31.796 51.9838 31.8847L51.0995 32.148L50.8782 32.2133L50.6539 32.2708L50.2054 32.3839C49.9051 32.4561 49.6097 32.5419 49.3045 32.5974L48.3949 32.7778C48.0916 32.8363 47.7826 32.8753 47.4774 32.9241L47.0182 32.9933C46.8661 33.0177 46.7101 33.0284 46.556 33.0469L45.6317 33.1366C45.3304 33.159 45.036 33.1756 44.7406 33.1932C42.3967 33.3063 40.2409 33.2234 38.2256 33.2673C37.977 33.2751 37.7245 33.279 37.4788 33.2897C37.236 33.3024 36.9844 33.3092 36.7465 33.3267C36.5057 33.3414 36.2629 33.354 36.0289 33.3784L35.674 33.4096L35.3269 33.4515C35.0959 33.4759 34.8609 33.5139 34.6259 33.549C34.389 33.5812 34.1589 33.6309 33.9229 33.6709C33.8069 33.6933 33.686 33.7109 33.5729 33.7362L33.2385 33.8133L32.9021 33.8874C32.791 33.9137 32.6837 33.9478 32.5745 33.9771C30.8205 34.4538 29.2303 35.2485 27.9121 36.474L27.6722 36.7119C27.5932 36.7929 27.5074 36.8689 27.4353 36.9557C27.2861 37.1263 27.1272 37.293 26.9878 37.4773L26.7703 37.7493L26.5675 38.036L26.4652 38.1803C26.432 38.229 26.4018 38.2797 26.3696 38.3295L26.1766 38.6307C25.6803 39.4488 25.2737 40.3594 24.9412 41.3247C24.2909 43.26 23.9701 45.4002 23.821 47.6027Z" fill="#7CC7B9"/>
</svg>
