<svg width="12" height="12" viewBox="0 0 12 12" fill="none" xmlns="http://www.w3.org/2000/svg">
<path d="M11.75 5.25C11.8125 5.25 11.8438 5.28125 11.9062 5.34375C11.9688 5.40625 12 5.4375 12 5.5V6.5C12 6.5625 11.9688 6.625 11.9062 6.6875C11.8438 6.75 11.8125 6.75 11.75 6.75H6.75V11.75C6.75 11.8125 6.71875 11.875 6.65625 11.9375C6.59375 12 6.5625 12 6.5 12H5.5C5.4375 12 5.375 12 5.3125 11.9375C5.25 11.875 5.25 11.8125 5.25 11.75V6.75H0.25C0.1875 6.75 0.125 6.75 0.0625 6.6875C0 6.625 0 6.5625 0 6.5V5.5C0 5.4375 0 5.40625 0.0625 5.34375C0.125 5.28125 0.1875 5.25 0.25 5.25H5.25V0.25C5.25 0.1875 5.25 0.15625 5.3125 0.09375C5.375 0.03125 5.4375 0 5.5 0H6.5C6.5625 0 6.59375 0.03125 6.65625 0.09375C6.71875 0.15625 6.75 0.1875 6.75 0.25V5.25H11.75Z" fill="#FF671F"/>
</svg>
