<svg width="30" height="35" viewBox="0 0 30 35" fill="none" xmlns="http://www.w3.org/2000/svg">
<path fill-rule="evenodd" clip-rule="evenodd" d="M13.9785 34.4357C10.7455 31.6659 0.578125 22.3787 0.578125 15.125C0.578125 6.5 6.32812 0.75 14.9531 0.75C23.5781 0.75 29.3281 7.9375 29.3281 15.125C29.3281 21.1966 19.0701 31.3715 15.885 34.3844C15.3515 34.8891 14.5362 34.9134 13.9785 34.4357ZM19.7454 13.208C19.7454 15.8544 17.6001 17.9997 14.9538 17.9997C12.3074 17.9997 10.1621 15.8544 10.1621 13.208C10.1621 10.5617 12.3074 8.41638 14.9538 8.41638C17.6001 8.41638 19.7454 10.5617 19.7454 13.208Z" fill="#FF671F"/>
</svg>
