<svg width="27" height="27" viewBox="0 0 27 27" fill="none" xmlns="http://www.w3.org/2000/svg">
<path d="M17.4375 25.875H9.5625C9.11495 25.875 8.68572 25.6972 8.36926 25.3807C8.05279 25.0643 7.875 24.6351 7.875 24.1875V19.125H2.8125C2.36495 19.125 1.93572 18.9472 1.61926 18.6307C1.30279 18.3143 1.125 17.8851 1.125 17.4375V9.5625C1.125 9.11495 1.30279 8.68572 1.61926 8.36926C1.93572 8.05279 2.36495 7.875 2.8125 7.875H7.875V2.8125C7.875 2.36495 8.05279 1.93572 8.36926 1.61926C8.68572 1.30279 9.11495 1.125 9.5625 1.125H17.4375C17.8851 1.125 18.3143 1.30279 18.6307 1.61926C18.9472 1.93572 19.125 2.36495 19.125 2.8125V7.875H24.1875C24.6351 7.875 25.0643 8.05279 25.3807 8.36926C25.6972 8.68572 25.875 9.11495 25.875 9.5625V17.4375C25.875 17.8851 25.6972 18.3143 25.3807 18.6307C25.0643 18.9472 24.6351 19.125 24.1875 19.125H19.125V24.1875C19.125 24.6351 18.9472 25.0643 18.6307 25.3807C18.3143 25.6972 17.8851 25.875 17.4375 25.875ZM10.125 23.625H16.875V16.875H23.625V10.125H16.875V3.375H10.125V10.125H3.375V16.875H10.125V23.625Z" fill="#04B6B1"/>
</svg>
