<svg width="27" height="33" viewBox="0 0 27 33" fill="none" xmlns="http://www.w3.org/2000/svg">
<g filter="url(#filter0_d_54035_733)">
<path fill-rule="evenodd" clip-rule="evenodd" d="M13.2778 0C7.04278 0 2 5.04278 2 11.2778C2 19.7361 13.2778 29 13.2778 29C13.2778 29 24.5556 19.7361 24.5556 11.2778C24.5556 5.04278 19.5128 0 13.2778 0ZM13.2778 16.1111C15.9472 16.1111 18.1111 13.9472 18.1111 11.2778C18.1111 8.6084 15.9472 6.44444 13.2778 6.44444C10.6084 6.44444 8.44445 8.6084 8.44445 11.2778C8.44445 13.9472 10.6084 16.1111 13.2778 16.1111Z" fill="#FF671F"/>
</g>
<ellipse cx="13.567" cy="11.3258" rx="6.34826" ry="5.77114" fill="#FF671F"/>
<path d="M15.4043 18.2513H11.7317C11.523 18.2513 11.3229 18.1684 11.1753 18.0208C11.0277 17.8732 10.9448 17.673 10.9448 17.4643V15.1034H8.58385C8.37513 15.1034 8.17496 15.0205 8.02737 14.8729C7.87979 14.7253 7.79688 14.5251 7.79688 14.3164V10.6439C7.79688 10.4351 7.87979 10.235 8.02737 10.0874C8.17496 9.93979 8.37513 9.85688 8.58385 9.85688H10.9448V7.49596C10.9448 7.28724 11.0277 7.08707 11.1753 6.93948C11.3229 6.7919 11.523 6.70898 11.7317 6.70898H15.4043C15.613 6.70898 15.8132 6.7919 15.9608 6.93948C16.1084 7.08707 16.1913 7.28724 16.1913 7.49596V9.85688H18.5522C18.7609 9.85688 18.9611 9.93979 19.1087 10.0874C19.2563 10.235 19.3392 10.4351 19.3392 10.6439V14.3164C19.3392 14.5251 19.2563 14.7253 19.1087 14.8729C18.9611 15.0205 18.7609 15.1034 18.5522 15.1034H16.1913V17.4643C16.1913 17.673 16.1084 17.8732 15.9608 18.0208C15.8132 18.1684 15.613 18.2513 15.4043 18.2513ZM11.9941 17.202H15.142V14.0541H18.2899V10.9062H15.142V7.75828H11.9941V10.9062H8.84617V14.0541H11.9941V17.202Z" fill="white"/>
<defs>
<filter id="filter0_d_54035_733" x="0" y="0" width="26.5547" height="33" filterUnits="userSpaceOnUse" color-interpolation-filters="sRGB">
<feFlood flood-opacity="0" result="BackgroundImageFix"/>
<feColorMatrix in="SourceAlpha" type="matrix" values="0 0 0 0 0 0 0 0 0 0 0 0 0 0 0 0 0 0 127 0" result="hardAlpha"/>
<feOffset dy="2"/>
<feGaussianBlur stdDeviation="1"/>
<feComposite in2="hardAlpha" operator="out"/>
<feColorMatrix type="matrix" values="0 0 0 0 0.391667 0 0 0 0 0.205147 0 0 0 0 0.17625 0 0 0 0.31 0"/>
<feBlend mode="normal" in2="BackgroundImageFix" result="effect1_dropShadow_54035_733"/>
<feBlend mode="normal" in="SourceGraphic" in2="effect1_dropShadow_54035_733" result="shape"/>
</filter>
</defs>
</svg>
