<svg width="76" height="77" viewBox="0 0 76 77" fill="none" xmlns="http://www.w3.org/2000/svg">
<path d="M51.5026 16.8806C51.0832 14.4929 50.7538 12.1043 50.4469 9.71574L50.3353 8.82024L50.2804 8.37204L50.2669 8.26044C50.2624 8.22354 50.2588 8.18214 50.2516 8.15784L50.2156 7.98954C50.1211 7.54494 49.951 7.13454 49.7206 6.77544C49.4875 6.41724 49.2013 6.10584 48.871 5.86644C48.5407 5.62794 48.1816 5.45064 47.8117 5.35164C47.4418 5.25174 47.0692 5.21844 46.7056 5.25354L45.0343 5.40654L43.2424 5.56314C42.6448 5.61444 42.0481 5.66484 41.4505 5.71074C39.061 5.90334 36.6724 6.07074 34.2829 6.21834C33.0886 6.29484 31.8934 6.36054 30.6991 6.42714L30.2509 6.45234L30.0268 6.46404L29.971 6.46674L29.944 6.46854L29.9332 6.47124L29.8918 6.48114C29.8639 6.48744 29.8369 6.49194 29.809 6.49554C29.7811 6.49914 29.7532 6.50004 29.728 6.51264C29.6767 6.53244 29.6236 6.54054 29.5723 6.55764C29.3698 6.62424 29.1916 6.74034 29.0332 6.87084C28.8748 7.00314 28.7425 7.16424 28.6462 7.33794C28.5508 7.51254 28.4869 7.69344 28.4572 7.87704C28.4383 7.96794 28.4401 8.06244 28.4374 8.15514C28.441 8.17944 28.4428 8.20284 28.4437 8.22624L28.4446 8.26134V8.27934V8.28834L28.4455 8.31264L28.4626 8.76084L28.5202 10.5527C28.5985 12.9422 28.6525 15.3326 28.6975 17.7221C28.711 18.3197 28.7164 18.9173 28.7254 19.5149V19.5428L28.7245 19.5905L28.7218 19.6877L28.7155 19.8821L28.6975 20.27C28.6939 20.3996 28.6759 20.5283 28.6588 20.657C28.6417 20.7857 28.6228 20.9153 28.6039 21.044C28.5715 21.3023 28.5004 21.5552 28.4392 21.809C28.405 21.935 28.3789 22.0637 28.3339 22.1861C28.2925 22.3094 28.2493 22.4336 28.2052 22.556C27.4906 24.5243 26.0398 26.1866 24.1975 27.173C23.9644 27.2909 23.7304 27.4079 23.4901 27.5114C23.2462 27.6068 23.0005 27.6968 22.7539 27.7823C22.5028 27.8543 22.249 27.9209 21.9952 27.9821C21.7405 28.0379 21.4813 28.073 21.223 28.1117C21.0943 28.1333 20.9647 28.1414 20.8351 28.1495L20.4463 28.1702C20.1385 28.1855 20.0521 28.1783 19.8901 28.1801L18.9937 28.1819L15.4081 28.1639C14.2129 28.1495 13.0177 28.1414 11.8225 28.1216L8.49882 28.0631C8.32152 28.0622 8.15052 28.0901 7.98222 28.1513C7.81392 28.2116 7.64832 28.3025 7.50252 28.4258C7.35582 28.5482 7.23162 28.7003 7.13442 28.8677C7.03992 29.0369 6.97512 29.2232 6.94542 29.4311L6.93732 29.4698L6.93282 29.4896C6.93192 29.4932 6.93102 29.495 6.93012 29.5013L6.92922 29.5292L6.92112 29.7533L6.90312 30.2015L6.86622 31.0979L6.79152 32.8907C6.73482 34.0859 6.68262 35.2811 6.61602 36.4763C6.55572 37.6715 6.48282 38.8667 6.41262 40.0628C6.33522 41.258 6.26142 42.4532 6.17412 43.6493C6.13272 44.2469 6.08952 44.8445 6.04272 45.4421L5.92932 46.9613C5.92032 47.3042 5.97612 47.6543 6.09942 47.9945C6.22272 48.3347 6.41622 48.6605 6.66642 48.9512C6.91572 49.2428 7.22712 49.4921 7.57992 49.6847L7.71312 49.7594C7.75902 49.7801 7.80672 49.7972 7.85352 49.8179L7.99572 49.8791C8.04252 49.9034 8.09382 49.9097 8.14242 49.9268L8.29182 49.9727C8.31702 49.9799 8.34222 49.9898 8.36742 49.9961L8.44482 50.0105L8.60142 50.042L8.68062 50.0591C8.69502 50.0618 8.70312 50.0654 8.72382 50.0672L8.77962 50.0735C9.97482 50.1968 11.1709 50.33 12.3661 50.4704C14.7574 50.7557 17.1487 51.0653 19.5409 51.4649C17.1532 51.887 14.7646 52.2182 12.376 52.526C11.1817 52.6772 9.98742 52.8212 8.79312 52.9562L8.73732 52.9625C8.72022 52.9652 8.69142 52.9652 8.66892 52.967L8.52402 52.9733L8.23242 52.9841L8.08572 52.9877C8.03712 52.9877 7.98852 52.9832 7.93902 52.9805L7.64562 52.9607C7.54752 52.9517 7.44852 52.9508 7.35132 52.9328L7.05882 52.8842C6.96162 52.8671 6.86262 52.8509 6.76542 52.8302L6.47652 52.7528C5.70612 52.5422 4.96812 52.1795 4.31112 51.6944C3.65322 51.2084 3.08172 50.5919 2.63082 49.8836C2.17902 49.1753 1.86582 48.3662 1.70292 47.5256L1.66962 47.3681C1.65882 47.315 1.65432 47.2619 1.64712 47.2097L1.60932 46.8902L1.59222 46.73L1.57872 46.5851L1.55982 46.361L1.48332 45.4655C1.43112 44.8679 1.38252 44.2712 1.33572 43.6736C1.23762 42.4793 1.15212 41.2841 1.06392 40.0898C0.982919 38.8955 0.89832 37.7003 0.82722 36.506C0.74982 35.3117 0.685919 34.1165 0.618419 32.9222L0.526619 31.1303L0.481619 30.2339L0.46002 29.7857L0.45012 29.5616L0.449219 29.5337V29.4887L0.45012 29.396L0.45282 29.2106C0.46092 28.2251 0.650819 27.2243 1.01802 26.2901C1.38342 25.355 1.93332 24.4955 2.61192 23.7548C3.29232 23.015 4.10952 22.3949 5.02032 21.9422C5.93022 21.4895 6.93102 21.2051 7.94442 21.107L8.32512 21.08C8.44662 21.0719 8.60232 21.0638 8.65362 21.0629L9.10182 21.0485L9.99822 21.0242L11.7901 20.9774C12.9853 20.9468 14.1796 20.9279 15.3748 20.9018L18.9595 20.8505L19.8559 20.8433C19.9918 20.8415 20.2051 20.8424 20.1952 20.8343C20.215 20.8316 20.2339 20.8307 20.2537 20.8307C20.2735 20.8316 20.2933 20.8334 20.3113 20.8253C20.3473 20.8136 20.386 20.8154 20.4229 20.8064C20.458 20.792 20.4931 20.783 20.5309 20.7776C20.5642 20.7587 20.5984 20.7452 20.6344 20.7371C20.6677 20.72 20.6983 20.6984 20.7352 20.6876C20.8684 20.6174 20.9917 20.5202 21.0943 20.405C21.1978 20.2898 21.2752 20.1566 21.3319 20.0189C21.3382 20.0018 21.3463 19.9847 21.3553 19.9676C21.367 19.9514 21.3634 19.9307 21.3697 19.9136C21.3751 19.8767 21.4012 19.8443 21.3985 19.8038C21.4003 19.7849 21.4039 19.766 21.4084 19.7471C21.4129 19.7282 21.421 19.7102 21.4174 19.6895C21.4174 19.6697 21.4183 19.6499 21.4201 19.6301L21.4246 19.6004L21.4273 19.5851L21.4291 19.577V19.5491C21.4327 18.9515 21.4327 18.3539 21.4408 17.7563C21.4633 15.3659 21.4957 12.9755 21.5515 10.586L21.5929 8.79324L21.6055 8.34504L21.6136 8.17134L21.6244 7.98324L21.6514 7.60704C21.7072 7.10664 21.7963 6.60714 21.9412 6.12294C22.2229 5.15364 22.6837 4.24014 23.2903 3.44814C23.8951 2.65524 24.6403 1.97754 25.4809 1.45374C26.3206 0.930839 27.2593 0.562739 28.2268 0.383639C28.468 0.33954 28.7128 0.31164 28.9549 0.28194C29.0764 0.26484 29.1979 0.261241 29.3194 0.256741L29.6839 0.246841L29.8657 0.244141H29.9116L29.9404 0.24504L29.9962 0.24774L30.2203 0.256741L30.6685 0.27744C31.8637 0.33234 33.0589 0.38724 34.2541 0.45294C36.6445 0.57894 39.0358 0.723841 41.4262 0.893941C42.0238 0.934441 42.6214 0.97854 43.219 1.02444L45.0118 1.16394L45.9082 1.23684L46.3564 1.27374L46.6129 1.29714L46.9252 1.33134C47.7532 1.43394 48.5605 1.68414 49.2814 2.07204C50.0023 2.45904 50.6431 2.97024 51.1606 3.57504C51.6799 4.17804 52.0777 4.87104 52.3333 5.60274C52.5907 6.33354 52.705 7.10304 52.6771 7.85094L52.6654 8.13084C52.6645 8.18124 52.6591 8.21364 52.6555 8.25234L52.6429 8.36484L52.5925 8.81304L52.489 9.70944C52.2073 12.0971 51.8995 14.4884 51.5026 16.8806Z" fill="#649EFF" fill-opacity="0.77"/>
<path d="M40.7438 34.2782C40.4153 34.4528 40.085 34.6184 39.7619 34.7984C39.4352 34.9703 39.1139 35.1521 38.7944 35.333C38.1563 35.6975 37.529 36.0746 36.9206 36.4724C36.3095 36.8657 35.7182 37.2833 35.1431 37.7135C34.8551 37.9277 34.5761 38.1527 34.2971 38.3741C34.0235 38.6036 33.7499 38.8295 33.4871 39.0671C32.9579 39.536 32.4521 40.0247 31.9787 40.5359C31.5089 41.0462 31.0679 41.5628 30.6782 42.1127L30.5297 42.3161C30.4811 42.3845 30.437 42.4556 30.3902 42.5258C30.2993 42.6671 30.2039 42.803 30.1148 42.9443L29.8583 43.3727C29.8142 43.4429 29.7746 43.5158 29.7359 43.5896L29.6189 43.8083L29.5019 44.0261C29.4641 44.0999 29.4308 44.1755 29.3948 44.2493C29.3246 44.3987 29.2481 44.5436 29.1824 44.6948L28.988 45.1484C28.9241 45.2996 28.871 45.4562 28.8116 45.6092C28.5875 46.2275 28.3877 46.853 28.241 47.501C28.0916 48.1472 27.9611 48.7979 27.8756 49.4666L27.8405 49.7159L27.8126 49.9679L27.7568 50.4728C27.7262 50.8229 27.6893 51.1712 27.6641 51.5204C27.6425 51.8696 27.6101 52.217 27.5975 52.5662L27.5705 53.0882C27.5615 53.2619 27.5588 53.4365 27.5525 53.6102C27.5102 55.0025 27.5309 56.3939 27.6047 57.8096C27.6362 58.5152 27.6812 59.2307 27.7289 59.9489L27.8837 62.1287C27.935 62.8604 27.9917 63.6002 28.0367 64.3436L28.1825 66.4937L28.2275 67.0148L28.2509 67.2551L28.2626 67.3703L28.2761 67.4783C28.3112 67.7636 28.3544 67.9985 28.4048 68.1776C28.4552 68.3576 28.5083 68.48 28.5632 68.5682C28.5794 68.588 28.5902 68.6114 28.6046 68.6303C28.6208 68.6474 28.6307 68.669 28.6478 68.6861C28.6559 68.6942 28.664 68.7032 28.6712 68.7122C28.6784 68.7212 28.6829 68.7302 28.6955 68.7419C28.7171 68.7635 28.7351 68.7878 28.7558 68.8103C28.9241 68.9885 29.1419 69.1325 29.375 69.2234C29.609 69.3134 29.852 69.3521 30.0716 69.3332L32.2109 69.2657L34.4168 69.2063C37.358 69.1262 40.3001 69.0686 43.2413 69.0209L45.4472 68.9912L46.5506 68.9777L46.6838 68.9759C46.6964 68.9732 46.7081 68.9714 46.7207 68.9696C46.745 68.966 46.7693 68.9642 46.7936 68.9651C46.8188 68.9696 46.8404 68.9561 46.8638 68.9525C46.8872 68.9471 46.9097 68.9444 46.934 68.9426C47.114 68.9012 47.2814 68.8184 47.4317 68.7032C47.5793 68.5871 47.7134 68.4404 47.7899 68.2712C47.8709 68.1047 47.9195 67.9328 47.9267 67.7375C47.9285 67.7258 47.9303 67.7132 47.9321 67.7015V67.5692L47.9312 67.2938L47.9303 66.7421L47.9276 65.6387L47.9411 61.226L47.9789 56.8133C47.9834 56.6144 47.978 56.5046 47.9969 56.1311C48.005 55.9736 48.0149 55.8161 48.0257 55.6595C48.0374 55.5029 48.0671 55.3454 48.0896 55.1888C48.1148 55.0322 48.1391 54.8756 48.1697 54.7208C48.2066 54.5669 48.2462 54.413 48.2867 54.26C48.3614 53.9513 48.4739 53.6543 48.5864 53.3582C48.6152 53.2844 48.6431 53.2106 48.6737 53.1377L48.7745 52.9235C48.8429 52.7813 48.9131 52.6391 48.9842 52.4978C49.0184 52.4267 49.0589 52.3583 49.0994 52.2908L49.2218 52.0883C49.3046 51.9542 49.3865 51.8192 49.4756 51.6896C49.5683 51.5627 49.6628 51.4367 49.7591 51.3125C49.8554 51.1883 49.9499 51.0623 50.0579 50.948C50.2703 50.7167 50.4773 50.4809 50.7158 50.2766C51.6401 49.4306 52.7534 48.7925 53.9531 48.4262C54.2555 48.347 54.5588 48.2642 54.8666 48.2102C55.0205 48.1859 55.1753 48.1634 55.3301 48.1427L55.5623 48.113C55.6397 48.1049 55.7171 48.1031 55.7945 48.0986C55.9493 48.0905 56.1041 48.0851 56.2589 48.0806L56.375 48.0779L56.4326 48.077L56.4695 48.0779L56.6072 48.0806L57.1589 48.0932C58.6304 48.1238 60.101 48.1661 61.5725 48.2066C63.044 48.248 64.5146 48.2984 65.9861 48.3479L67.0895 48.3893L67.6412 48.41L67.9166 48.4199L67.9859 48.4226L68.0201 48.4235H68.0336H68.0885C68.3828 48.4397 68.6753 48.4019 68.9606 48.293L68.9885 48.2849L69.0137 48.2714L69.065 48.2453C69.0992 48.2282 69.1352 48.2138 69.1712 48.1985C69.2027 48.1769 69.236 48.1562 69.2693 48.1364C69.3026 48.1157 69.3413 48.1013 69.3692 48.0743C69.4277 48.023 69.5024 47.987 69.5564 47.9276C69.5861 47.9006 69.6167 47.8754 69.6482 47.8493C69.6779 47.8223 69.7013 47.7899 69.7301 47.7611C69.9488 47.5253 70.1288 47.2418 70.2224 46.9187C70.2314 46.8773 70.2422 46.8368 70.2539 46.7963L70.2728 46.7351C70.28 46.7144 70.2791 46.6928 70.2827 46.6712C70.2881 46.628 70.2953 46.5857 70.3043 46.5425L70.3106 46.5101C70.3124 46.4966 70.316 46.4948 70.3169 46.4669L70.3241 46.3292L70.3808 45.2258L70.5014 43.019C70.6679 40.076 70.856 37.1339 71.0729 34.1909C71.1818 32.7194 71.2961 31.2479 71.4194 29.7764L71.4428 29.5001L71.4482 29.4308C71.45 29.4083 71.4527 29.3822 71.4527 29.3687L71.4581 29.2697L71.4725 29.069L71.4761 29.0186L71.4734 28.9691L71.4689 28.8683C71.4662 28.8008 71.4644 28.7333 71.4635 28.6649L71.4365 28.4633C71.4257 28.3967 71.4248 28.3256 71.4068 28.2599L71.3591 28.0592L71.3366 27.9575C71.3276 27.9242 71.3141 27.8918 71.3033 27.8594L71.2358 27.6605C71.2169 27.5912 71.1809 27.5318 71.153 27.4661L71.0666 27.2708L70.9595 27.0854C70.9217 27.0242 70.8929 26.9558 70.847 26.9L70.721 26.7227C70.6994 26.693 70.6796 26.6615 70.6571 26.6336L70.5851 26.5517C70.208 26.1017 69.7211 25.7237 69.1577 25.4618C69.0866 25.4303 69.0137 25.4051 68.9417 25.3763C68.8688 25.3493 68.7968 25.3142 68.7212 25.2935L68.4935 25.2305C68.417 25.2089 68.3405 25.1828 68.2613 25.1738L68.0237 25.1324L67.9031 25.1117L67.7654 25.0973L67.2137 25.037C65.7422 24.8705 64.2707 24.7058 62.7983 24.5006C64.268 24.2819 65.7386 24.1037 67.2083 23.9237L67.76 23.8589L67.8977 23.8427L68.0525 23.8337L68.3666 23.8175C68.4719 23.8085 68.5763 23.8166 68.6825 23.8211L69.0002 23.8391C69.1064 23.8463 69.2108 23.8679 69.3161 23.8823C69.4214 23.8994 69.5285 23.9138 69.6338 23.9354C70.4744 24.1163 71.2853 24.4997 71.9864 25.0487L72.1187 25.1513C72.1619 25.1864 72.2015 25.226 72.2429 25.2629L72.4895 25.4924C72.575 25.5671 72.6434 25.6553 72.7208 25.7381L72.9458 25.9937L73.1474 26.2682C73.2122 26.3618 73.2851 26.4509 73.34 26.5517L73.5137 26.8487C73.5416 26.8991 73.5722 26.9477 73.5983 26.999L73.6712 27.1556L73.8152 27.4724C73.8647 27.5777 73.8953 27.6902 73.9358 27.7991C73.9736 27.9098 74.0123 28.0196 74.0465 28.1321L74.1275 28.4732L74.1662 28.6451L74.1851 28.7315L74.1968 28.8188L74.2418 29.1689L74.2625 29.3453L74.2769 29.4902L74.303 29.7656C74.4398 31.2362 74.5676 32.7059 74.69 34.1765C74.9339 37.1168 75.149 40.058 75.3434 42.9992L75.4847 45.2051L75.5522 46.3076L75.5603 46.4453C75.5621 46.4624 75.5621 46.5065 75.5621 46.5398V46.6451C75.5621 46.7855 75.5612 46.9259 75.5585 47.0672C75.5558 47.1374 75.5585 47.2085 75.5504 47.2787L75.5297 47.4902C75.5144 47.6315 75.4991 47.7719 75.4811 47.9132C75.1427 50.1713 73.7198 52.2593 71.6804 53.4086C70.6643 53.9846 69.5024 54.3374 68.3279 54.4112L68.1074 54.4265L68.0174 54.4319L67.9481 54.4355L67.6727 54.4481L67.121 54.4733L66.0176 54.5246C64.547 54.5876 63.0764 54.6515 61.6058 54.7064C60.1352 54.7604 58.6646 54.8171 57.194 54.8603L56.6423 54.8783L56.5046 54.8828L56.4722 54.8837L56.4614 54.8864L56.4398 54.8909C56.411 54.8972 56.3822 54.9008 56.3534 54.9035C56.339 54.9053 56.3246 54.9035 56.3102 54.9071C56.2967 54.9116 56.2832 54.9161 56.2697 54.9206C56.2427 54.9287 56.2157 54.935 56.1878 54.9395C56.1806 54.9404 56.1743 54.9413 56.1671 54.9431L56.1482 54.9521C56.1356 54.9575 56.123 54.9629 56.1095 54.9683C56.0834 54.9782 56.0573 54.9854 56.0312 54.9908C55.8305 55.0763 55.6487 55.205 55.5011 55.3652C55.457 55.3985 55.4345 55.4516 55.3976 55.4903C55.3769 55.5083 55.367 55.5353 55.3535 55.5578C55.34 55.5812 55.3247 55.6028 55.3085 55.6235C55.2968 55.6469 55.2887 55.673 55.2752 55.6955C55.2689 55.7072 55.2626 55.718 55.2554 55.7297C55.2482 55.7405 55.2401 55.7513 55.2383 55.7648C55.2311 55.79 55.2221 55.8143 55.2113 55.8377C55.2059 55.8494 55.2005 55.8611 55.1942 55.8719C55.1906 55.8845 55.1897 55.8971 55.1861 55.9097C55.1753 55.9601 55.1501 56.0051 55.1501 56.0573C55.1465 56.0825 55.1402 56.1068 55.1321 56.1311C55.1312 56.1572 55.1321 56.1833 55.1294 56.2085C55.1294 56.2346 55.1186 56.258 55.1213 56.285C55.124 56.312 55.1258 56.3381 55.1249 56.3642C55.1195 56.3579 55.1258 56.6153 55.1294 56.7845L55.2086 61.1972L55.2635 65.6099L55.2716 66.7133L55.2752 67.265L55.277 67.5404L55.2779 67.6844L55.2707 67.9238C55.2419 69.1991 54.9215 70.4861 54.3347 71.63C53.7533 72.7784 52.901 73.7747 51.8813 74.5487C50.8616 75.3218 49.6628 75.8762 48.4001 76.1255C48.2417 76.1525 48.0833 76.1786 47.9249 76.202C47.7665 76.2236 47.6072 76.2524 47.4488 76.2587C47.2895 76.2695 47.1302 76.2776 46.9709 76.2839L46.7324 76.2929H46.5893L45.4859 76.2902L43.2791 76.2803C40.337 76.2596 37.3949 76.2299 34.4528 76.1768L32.246 76.1381L29.9726 76.085C29.3471 76.0661 28.7279 75.9761 28.1321 75.8186C27.5354 75.6611 26.9621 75.4343 26.4212 75.1508C25.3403 74.5838 24.3854 73.781 23.6492 72.7982C23.5583 72.6749 23.471 72.548 23.3846 72.422C23.2982 72.296 23.2145 72.1511 23.1326 72.0152C23.0507 71.8766 22.9796 71.7326 22.9058 71.5895C22.8347 71.4464 22.7726 71.2997 22.7087 71.1548C22.4639 70.5698 22.31 69.9821 22.2146 69.4421C22.1192 68.9003 22.0787 68.4026 22.0589 67.9553L22.0517 67.7879L22.0472 67.6277C22.0436 67.5188 22.0418 67.4189 22.0409 67.3172L22.0391 66.7358L22.0733 64.475L22.121 62.2781C22.1489 60.8039 22.193 59.3009 22.2803 57.7727C22.3253 57.0104 22.3892 56.24 22.463 55.4705C22.5062 55.0844 22.5422 54.7001 22.5962 54.314L22.6727 53.7362C22.6988 53.5436 22.7303 53.3519 22.7591 53.1593C22.8725 52.3907 23.0174 51.6266 23.1749 50.8688C23.2532 50.4899 23.3432 50.1137 23.4269 49.7366C23.4719 49.5458 23.5232 49.3496 23.5718 49.157L23.6465 48.8672L23.7293 48.5774C23.9435 47.8061 24.2045 47.0375 24.5078 46.2833C24.8066 45.5291 25.163 44.7893 25.5626 44.0765C25.9595 43.3619 26.4131 42.677 26.9117 42.0326L27.0989 41.7914C27.1601 41.7104 27.224 41.6312 27.2915 41.5547L27.6875 41.093C27.8225 40.9427 27.9629 40.7969 28.1015 40.6502C28.1717 40.5773 28.2392 40.5026 28.3112 40.4324L28.529 40.2236C28.6757 40.0859 28.8152 39.9419 28.9673 39.8123L29.4182 39.419C29.5676 39.2885 29.7287 39.1706 29.8826 39.0464C30.0374 38.9231 30.1931 38.8007 30.3524 38.6891C30.9788 38.222 31.6331 37.8035 32.2973 37.4138C32.9624 37.025 33.641 36.6695 34.3331 36.3527C35.0243 36.0332 35.7227 35.7416 36.4319 35.4878C37.8458 34.9694 39.2867 34.5671 40.7438 34.2782Z" fill="#649EFF" fill-opacity="0.77"/>
<path d="M21.6792 43.5567C21.5937 43.3164 21.5109 43.0743 21.4353 42.8295C21.3588 42.5847 21.2922 42.3372 21.2229 42.0888C21.1896 41.9646 21.159 41.8395 21.1293 41.7135C21.0987 41.5884 21.0699 41.4624 21.0438 41.3355L20.9637 40.9548L20.8935 40.5714C20.7144 39.5454 20.637 38.4879 20.6631 37.4097C20.6874 36.8715 20.7225 36.3261 20.8116 35.7816C20.8476 35.508 20.9043 35.2353 20.9601 34.9617C20.9853 34.824 21.0249 34.6899 21.0582 34.5531C21.0942 34.4172 21.1257 34.2795 21.1662 34.1436C21.4848 33.0582 21.9627 31.9845 22.6071 30.9918L22.8609 30.6273C22.9464 30.5058 23.0301 30.3825 23.1255 30.2682C23.3118 30.0369 23.4927 29.7975 23.697 29.5815L24.0003 29.2512C24.1038 29.1432 24.2127 29.0433 24.3198 28.938C24.4278 28.8354 24.5349 28.7292 24.6456 28.6293L24.9858 28.3395C25.9029 27.5745 26.9154 26.94 27.9666 26.4324C28.098 26.3685 28.2294 26.301 28.3617 26.2416L28.7604 26.0697L29.1618 25.9014C29.295 25.8474 29.4264 25.8033 29.5587 25.7538C29.8233 25.6593 30.0879 25.5558 30.3561 25.4712L30.7575 25.3389C30.8907 25.2939 31.0311 25.2588 31.167 25.2183L31.5801 25.1022L31.9905 24.9996C32.2659 24.9285 32.5359 24.8709 32.8086 24.8106C33.3522 24.6936 33.8886 24.6018 34.4205 24.5136C36.5409 24.177 38.5515 24.0168 40.3677 23.7477C40.5918 23.7126 40.8177 23.6784 41.0355 23.6397L41.6664 23.5146C41.7717 23.493 41.877 23.4795 41.9814 23.4525L42.2946 23.3778C42.5025 23.3256 42.7122 23.2842 42.9183 23.2257C43.3305 23.1042 43.7445 22.9971 44.1522 22.8558L44.4591 22.7568L44.6121 22.7064L44.7642 22.6497L45.3708 22.4238C48.5946 21.1656 51.6285 19.2072 54.4851 16.8726L54.5292 16.8366C56.0889 15.5622 58.3866 15.7935 59.6619 17.3532C60.12 17.9139 60.3828 18.5655 60.4602 19.2351L60.4881 19.4718L60.5106 19.6779L60.5493 20.0766C60.5736 20.3394 60.5952 20.5995 60.615 20.8587C60.6546 21.3762 60.6816 21.8901 60.7014 22.404C60.7401 23.4309 60.7545 24.4569 60.7275 25.4847C60.7041 26.5125 60.6519 27.5412 60.5574 28.5726C60.5124 29.0883 60.4575 29.604 60.3936 30.1206C60.3288 30.6363 60.2496 31.1538 60.1668 31.6704C59.8248 33.7368 59.3055 35.8104 58.5234 37.8498C58.1202 38.8659 57.6675 39.8775 57.1032 40.8549C56.5506 41.835 55.8954 42.7845 55.1376 43.6692C54.7605 44.1129 54.3474 44.5332 53.9172 44.9355C53.694 45.1317 53.4789 45.3315 53.2449 45.5151C53.1288 45.6078 53.0163 45.7032 52.8966 45.7914L52.5366 46.0542L52.4457 46.1199L52.3467 46.1865L52.1478 46.3197C52.0164 46.407 51.8787 46.5015 51.7626 46.56L51.0372 46.9578C50.7942 47.0955 50.5566 47.2017 50.3181 47.3169C50.0796 47.4294 49.8429 47.5473 49.6035 47.6544C47.6784 48.5031 45.6849 49.1178 43.668 49.503C41.6493 49.8792 39.6036 50.016 37.5939 49.9116C35.5851 49.8009 33.6069 49.4526 31.7529 48.8073C33.7095 48.6525 35.5959 48.3573 37.4121 47.8983C39.2274 47.4438 40.9725 46.8399 42.6285 46.0992C44.2818 45.3504 45.8487 44.4702 47.2932 43.4748C47.4741 43.3506 47.6478 43.2174 47.8251 43.0905C47.9997 42.9618 48.1833 42.8349 48.3381 42.7035L48.8232 42.3192C48.9132 42.2535 48.9627 42.1968 49.0221 42.1383L49.1094 42.0519L49.1535 42.0096L49.2012 41.9592C49.4604 41.6955 49.7043 41.4156 49.9374 41.1258C50.1642 40.8279 50.3811 40.521 50.5845 40.1997C51.39 38.9073 51.9894 37.4061 52.4187 35.8014C52.8525 34.1949 53.1252 32.4903 53.2935 30.7515C53.334 30.3159 53.3709 29.8794 53.3961 29.4384C53.4249 28.9992 53.4501 28.5573 53.4645 28.1145C53.4816 27.6717 53.4888 27.2271 53.4942 26.7816C53.5005 26.3361 53.5014 25.8906 53.4942 25.4433C53.478 24.5496 53.4519 23.6541 53.397 22.7631C53.3691 22.3176 53.3358 21.873 53.3016 21.4329C53.2836 21.2133 53.2638 20.9946 53.2422 20.7795L53.2089 20.4618L53.1765 20.1882L59.1516 22.5498C57.4875 23.9133 55.7172 25.1931 53.8002 26.301C53.3286 26.5872 52.8309 26.8392 52.3422 27.1029C52.0947 27.2307 51.8418 27.3513 51.5925 27.4746L51.2163 27.6591L50.8329 27.8328L50.0616 28.1703L49.275 28.4817C49.1436 28.5321 49.014 28.587 48.8808 28.6338L48.4803 28.7751C48.2121 28.8669 47.9484 28.9659 47.6757 29.0478L46.8594 29.2908L46.6551 29.3511L46.4481 29.4042L46.0341 29.5086C45.7569 29.5752 45.4842 29.6544 45.2025 29.7057L44.3628 29.8722C44.0829 29.9262 43.7976 29.9622 43.5159 30.0072L43.092 30.0711C42.9516 30.0936 42.8076 30.1035 42.6654 30.1206L41.8122 30.2034C41.5341 30.2241 41.2623 30.2394 40.9896 30.2556C38.826 30.36 36.8361 30.2835 34.9758 30.324C34.7463 30.3312 34.5132 30.3348 34.2864 30.3447C34.0623 30.3564 33.8301 30.3627 33.6105 30.3789C33.3882 30.3924 33.1641 30.4041 32.9481 30.4266L32.6205 30.4554L32.3001 30.4941C32.0868 30.5166 31.8699 30.5517 31.653 30.5841C31.4343 30.6138 31.2219 30.6597 31.0041 30.6966C30.897 30.7173 30.7854 30.7335 30.681 30.7569L30.3723 30.828L30.0618 30.8964C29.9592 30.9207 29.8602 30.9522 29.7594 30.9792C28.1403 31.4193 26.6724 32.1528 25.4556 33.2841L25.2342 33.5037C25.1613 33.5784 25.0821 33.6486 25.0155 33.7287C24.8778 33.8862 24.7311 34.0401 24.6024 34.2102L24.4017 34.4613L24.2145 34.7259L24.12 34.8591C24.0894 34.9041 24.0615 34.9509 24.0318 34.9968L23.8536 35.2749C23.3955 36.03 23.0202 36.8706 22.7133 37.7616C22.113 39.5481 21.8169 41.5236 21.6792 43.5567Z" fill="#7CC7B9"/>
</svg>
