<svg width="24" height="24" viewBox="0 0 24 24" fill="none" xmlns="http://www.w3.org/2000/svg">
<path fill-rule="evenodd" clip-rule="evenodd" d="M11.3107 19.8015C9.3126 18.0271 4.91016 13.7297 4.91016 10.3129C4.91016 5.89308 7.8567 2.94653 12.2765 2.94653C16.6964 2.94653 19.6429 6.62972 19.6429 10.3129C19.6429 13.1798 15.1798 17.832 13.2015 19.7532C12.6747 20.2648 11.8597 20.2891 11.3107 19.8015ZM14.732 9.3307C14.732 10.6868 13.6326 11.7862 12.2765 11.7862C10.9204 11.7862 9.82104 10.6868 9.82104 9.3307C9.82104 7.97459 10.9204 6.87524 12.2765 6.87524C13.6326 6.87524 14.732 7.97459 14.732 9.3307Z" fill="#649EFF"/>
</svg>
