<svg width="27" height="27" viewBox="0 0 27 27" fill="none" xmlns="http://www.w3.org/2000/svg">
<circle cx="13.5" cy="13.5" r="13" fill="#649EFF" stroke="white"/>
<path d="M13.5 15.5C14.4113 15.5 15.15 14.8284 15.15 14C15.15 13.1716 14.4113 12.5 13.5 12.5C12.5887 12.5 11.85 13.1716 11.85 14C11.85 14.8284 12.5887 15.5 13.5 15.5Z" fill="white"/>
<path d="M17.9 10H16.1565L15.4745 9.325C15.372 9.2227 15.2472 9.14095 15.1079 9.08499C14.9687 9.02903 14.8182 9.00009 14.666 9H12.334C12.026 9 11.729 9.12 11.52 9.325L10.8435 10H9.1C8.495 10 8 10.45 8 11V17C8 17.55 8.495 18 9.1 18H17.9C18.505 18 19 17.55 19 17V11C19 10.45 18.505 10 17.9 10ZM13.5 16.5C11.982 16.5 10.75 15.38 10.75 14C10.75 12.62 11.982 11.5 13.5 11.5C15.018 11.5 16.25 12.62 16.25 14C16.25 15.38 15.018 16.5 13.5 16.5Z" fill="white"/>
</svg>
