<svg width="24" height="30" viewBox="0 0 24 30" fill="none" xmlns="http://www.w3.org/2000/svg">
<path d="M23.7502 20.1147C23.7502 25.0335 19.7628 29.021 14.844 29.021C9.92518 29.021 7.75195 24.2158 7.75195 19.297C7.75195 14.3782 9.92518 11.2085 14.844 11.2085C19.7628 11.2085 23.7502 15.196 23.7502 20.1147Z" fill="#FF671F"/>
<g filter="url(#filter0_b_53963_858)">
<path d="M0 4.28571C0 1.91878 1.91878 0 4.28571 0H13.1336C15.5006 0 17.4194 1.91878 17.4194 4.28571V25.7143C17.4194 28.0812 15.5006 30 13.1336 30H4.28572C1.91878 30 0 28.0812 0 25.7143V4.28571Z" fill="#BEBDBD" fill-opacity="0.37"/>
</g>
<path d="M6.7743 6.77435C6.7743 7.84329 5.90776 8.70983 4.83882 8.70983C3.76988 8.70983 2.90333 7.84329 2.90333 6.77435C2.90333 5.70541 3.76988 4.83887 4.83882 4.83887C5.90776 4.83887 6.7743 5.70541 6.7743 6.77435Z" fill="white"/>
<path d="M13.5485 6.77439C13.5485 7.84332 12.6819 8.70987 11.613 8.70987C10.5441 8.70987 9.67753 7.84332 9.67753 6.77439C9.67753 5.70545 10.5441 4.8389 11.613 4.8389C12.6819 4.8389 13.5485 5.70545 13.5485 6.77439Z" fill="white"/>
<path d="M6.77429 14.5163C6.77429 15.5853 5.90774 16.4518 4.8388 16.4518C3.76987 16.4518 2.90332 15.5853 2.90332 14.5163C2.90332 13.4474 3.76987 12.5809 4.8388 12.5809C5.90774 12.5809 6.77429 13.4474 6.77429 14.5163Z" fill="white"/>
<path d="M13.5485 14.5163C13.5485 15.5853 12.6819 16.4518 11.613 16.4518C10.5441 16.4518 9.67753 15.5853 9.67753 14.5163C9.67753 13.4474 10.5441 12.5809 11.613 12.5809C12.6819 12.5809 13.5485 13.4474 13.5485 14.5163Z" fill="white"/>
<path d="M6.77429 22.2582C6.77429 23.3271 5.90774 24.1937 4.8388 24.1937C3.76987 24.1937 2.90332 23.3271 2.90332 22.2582C2.90332 21.1893 3.76987 20.3227 4.8388 20.3227C5.90774 20.3227 6.77429 21.1893 6.77429 22.2582Z" fill="white"/>
<path d="M13.5485 22.2582C13.5485 23.3271 12.6819 24.1937 11.613 24.1937C10.5441 24.1937 9.67753 23.3271 9.67753 22.2582C9.67753 21.1893 10.5441 20.3227 11.613 20.3227C12.6819 20.3227 13.5485 21.1893 13.5485 22.2582Z" fill="white"/>
<defs>
<filter id="filter0_b_53963_858" x="-25" y="-25" width="67.4189" height="80" filterUnits="userSpaceOnUse" color-interpolation-filters="sRGB">
<feFlood flood-opacity="0" result="BackgroundImageFix"/>
<feGaussianBlur in="BackgroundImage" stdDeviation="12.5"/>
<feComposite in2="SourceAlpha" operator="in" result="effect1_backgroundBlur_53963_858"/>
<feBlend mode="normal" in="SourceGraphic" in2="effect1_backgroundBlur_53963_858" result="shape"/>
</filter>
</defs>
</svg>
