<svg width="245" height="225" viewBox="0 0 245 225" fill="none" xmlns="http://www.w3.org/2000/svg">
<path d="M154.764 71.2899V37.3596H210.907C229.644 37.3596 244.838 52.5535 244.838 71.2899H154.764Z" fill="#92B1E0"/>
<path d="M210.906 37.6351V37.3464H104.733C84.1726 37.3464 67.4961 54.0229 67.4961 74.5832V224.987H178.222V74.5832C178.222 55.5712 192.485 39.8919 210.906 37.6351Z" fill="#A0C0EF"/>
<path d="M210.908 37.6351V37.3464H132.538C111.977 37.3464 95.3008 54.0229 95.3008 74.5832V224.987H178.224V74.5832C178.224 55.5712 192.486 39.8919 210.908 37.6351Z" fill="#B1CFFE"/>
<path d="M162.567 74.2554H82.7012V81.7342H162.567V74.2554Z" fill="white"/>
<path d="M162.567 93.7002H82.7012V101.179H162.567V93.7002Z" fill="white"/>
<path d="M162.567 113.145H82.7012V120.624H162.567V113.145Z" fill="white"/>
<path d="M162.567 132.577H82.7012V140.056H162.567V132.577Z" fill="white"/>
<path d="M33.2265 122.75C20.1451 122.75 9.55664 133.351 9.55664 146.42V201.317C9.55664 214.398 20.1582 224.987 33.2265 224.987C46.3079 224.987 56.8964 214.385 56.8964 201.317V146.42C56.8964 133.351 46.2948 122.75 33.2265 122.75Z" fill="#E3EBF8"/>
<path d="M33.2265 122.75C20.1451 122.75 9.55664 133.351 9.55664 146.42V173.868H56.9095V146.42C56.8964 133.351 46.2948 122.75 33.2265 122.75Z" fill="#649EFF"/>
<path d="M18.6974 201.317V146.42C18.6974 134.913 26.911 125.335 37.7881 123.196C36.3054 122.907 34.7703 122.75 33.2089 122.75C20.1275 122.75 9.53906 133.351 9.53906 146.42V201.317C9.53906 214.398 20.1407 224.987 33.2089 224.987C34.7703 224.987 36.3054 224.829 37.7881 224.541C26.911 222.402 18.6974 212.824 18.6974 201.317Z" fill="#E3EBF8"/>
<path d="M45.9902 141.526C44.0089 141.526 42.4082 143.126 42.4082 145.108V162.86C42.4082 164.841 44.0089 166.442 45.9902 166.442C47.9714 166.442 49.5722 164.841 49.5722 162.86V145.108C49.5722 143.14 47.9714 141.526 45.9902 141.526Z" fill="white"/>
<path d="M47.9775 48.9845H36.6412V37.6482H24.2289V48.9845H12.8926V61.4099H24.2289V72.7331H36.6412V61.4099H47.9775V48.9845Z" fill="#649EFF"/>
<path d="M60.0309 97.4922H54.2709V91.7322H47.9729V97.4922H42.2129V103.79H47.9729V109.55H54.2709V103.79H60.0309V97.4922Z" fill="#E3EBF8"/>
<path d="M210.904 84.5421H205.144V78.7952H198.846V84.5421H193.086V90.8531H198.846V96.6H205.144V90.8531H210.904V84.5421Z" fill="#649EFF"/>
<path d="M31.7266 193.93C31.7266 204.794 37.3029 214.346 45.7527 219.896C52.4312 215.71 56.8922 208.297 56.8922 199.834V172.386V163.424C42.5643 166.193 31.7266 178.789 31.7266 193.93Z" fill="#E3EBF8"/>
<path d="M66.4856 42.3323L67.9027 41.1252L66.7612 39.8L81.0103 27.5715C81.194 27.414 81.3515 27.2041 81.4433 26.981C81.6532 26.4431 81.5614 25.8395 81.1809 25.4066L80.6429 24.7767L85.9569 20.2238L85.2877 19.4497L79.9738 24.0026L79.5408 23.504C79.1603 23.0711 78.583 22.8742 78.0188 23.0054C77.7826 23.0579 77.5464 23.176 77.3627 23.3335L63.1136 35.562L61.9721 34.2368L60.555 35.4439L62.7593 38.0156L60.7256 39.7607L60.1352 39.0784L57.7734 39.1834L62.3657 44.5366L62.8249 42.2143L62.2345 41.532L64.2682 39.7869L66.4856 42.3323Z" fill="#E3EBF8"/>
<path d="M232.55 141.368L230.569 139.059L228.404 140.922L208.408 117.633C208.146 117.331 207.804 117.082 207.437 116.937C206.571 116.583 205.574 116.753 204.865 117.37L203.829 118.262L196.376 109.576L195.104 110.665L202.556 119.351L201.743 120.047C201.034 120.663 200.719 121.608 200.929 122.527C201.021 122.92 201.205 123.288 201.467 123.589L221.463 146.879L219.298 148.742L221.279 151.051L225.478 147.443L228.325 150.763L227.21 151.72L227.381 155.591L236.119 148.086L232.314 147.338L231.199 148.296L228.352 144.976L232.55 141.368Z" fill="#E3EBF8"/>
<path d="M113.193 5.75172L111.264 2.20912C110.136 0.149155 107.564 -0.59872 105.504 0.516546C103.444 1.63181 102.696 4.2166 103.811 6.27657L105.74 9.81917L113.193 5.75172Z" fill="#E3EBF8"/>
<path d="M106.473 11.1834L108.782 15.4083C109.91 17.4682 112.482 18.2161 114.542 17.1009C116.602 15.9856 117.35 13.4008 116.235 11.3409L113.925 7.11597L106.473 11.1834Z" fill="#E3EBF8"/>
<path d="M175.92 9.18921L172.378 11.1048C170.318 12.2201 169.544 14.7918 170.659 16.8517C171.774 18.9117 174.346 19.6858 176.406 18.5706L179.948 16.6549L175.92 9.18921Z" fill="#E3EBF8"/>
<path d="M181.309 15.9335L185.547 13.6373C187.607 12.5221 188.381 9.95038 187.266 7.89042C186.151 5.83046 183.579 5.05634 181.519 6.1716L177.281 8.46774L181.309 15.9335Z" fill="#E3EBF8"/>
<path d="M145.157 27.0992C146.6 24.4751 145.931 21.1293 143.451 19.3055C140.971 17.4817 137.573 17.8229 135.5 19.9747L145.157 27.0992Z" fill="#649EFF"/>
<path d="M134.373 21.5884C133.153 24.1601 133.875 27.309 136.25 29.0541C138.625 30.7992 141.852 30.563 143.938 28.6474L134.373 21.5884Z" fill="#649EFF"/>
<path d="M239.64 108.212C237.199 106.467 233.801 106.755 231.702 109.012C229.602 111.256 229.55 114.68 231.452 116.99L239.64 108.212Z" fill="#E3EBF8"/>
<path d="M232.924 118.288C235.338 119.797 238.553 119.443 240.56 117.278C242.568 115.126 242.712 111.899 241.046 109.589L232.924 118.288Z" fill="#E3EBF8"/>
<path d="M222.636 53.0654C221.586 50.2576 218.595 48.5912 215.603 49.2866C212.612 49.982 210.657 52.7767 210.932 55.7683L222.636 53.0654Z" fill="#E3EBF8"/>
<path d="M211.432 57.6708C212.586 60.2688 215.46 61.7645 218.333 61.1085C221.207 60.4524 223.122 57.8414 223.03 55.0073L211.432 57.6708Z" fill="#E3EBF8"/>
<path d="M70.051 224.987C52.9022 224.987 38.9941 211.079 38.9941 193.93C38.9941 176.781 52.9022 162.873 70.051 162.873H79.4455V224.987H70.051Z" fill="#649EFF"/>
<path d="M79.4455 224.987C96.5978 224.987 110.502 211.082 110.502 193.93C110.502 176.778 96.5978 162.873 79.4455 162.873C62.2933 162.873 48.3887 176.778 48.3887 193.93C48.3887 211.082 62.2933 224.987 79.4455 224.987Z" fill="#E3EBF8"/>
<path d="M79.4456 215.592C91.4094 215.592 101.108 205.894 101.108 193.93C101.108 181.966 91.4094 172.268 79.4456 172.268C67.4818 172.268 57.7832 181.966 57.7832 193.93C57.7832 205.894 67.4818 215.592 79.4456 215.592Z" fill="#BDD4EF"/>
<path d="M79.4487 172.268C78.6877 172.268 77.953 172.307 77.2051 172.386C88.1216 173.501 96.6238 182.725 96.6238 193.93C96.6238 205.135 88.1084 214.359 77.2051 215.474C77.9398 215.553 78.6877 215.592 79.4487 215.592C91.4149 215.592 101.111 205.896 101.111 193.93C101.111 181.964 91.4149 172.268 79.4487 172.268Z" fill="#649EFF"/>
<path d="M88.3551 190.217H82.5951V184.457H76.2971V190.217H70.5371V196.515H76.2971V202.275H82.5951V196.515H88.3551V190.217Z" fill="white"/>
<path d="M122.631 158.202H98.4629V225H122.631V158.202Z" fill="#E3EBF8"/>
<path d="M103.449 158.202H98.4629V225H103.449V158.202Z" fill="#BDD4EF"/>
<path d="M123.246 148.768H97.5813C96.3217 148.768 95.2852 149.621 95.2852 150.671V168.305C95.2852 169.355 96.3086 170.207 97.5813 170.207H123.246C124.505 170.207 125.542 169.355 125.542 168.305V150.671C125.529 149.621 124.505 148.768 123.246 148.768Z" fill="#649EFF"/>
<path d="M105.248 168.305V150.671C105.248 149.621 106.272 148.768 107.544 148.768H97.5989C96.3393 148.768 95.3027 149.621 95.3027 150.671V168.305C95.3027 169.355 96.3261 170.207 97.5989 170.207H107.544C106.272 170.221 105.248 169.368 105.248 168.305Z" fill="#E3EBF8"/>
<path d="M117.814 203.783C116.423 203.783 115.295 204.912 115.295 206.303V218.767C115.295 220.158 116.423 221.287 117.814 221.287C119.205 221.287 120.333 220.158 120.333 218.767V206.303C120.333 204.912 119.205 203.783 117.814 203.783Z" fill="white"/>
<path d="M106.991 173.278H100.955V174.511H106.991V173.278Z" fill="white"/>
<path d="M106.991 178.355H100.955V179.589H106.991V178.355Z" fill="white"/>
<path d="M106.991 183.446H100.955V184.68H106.991V183.446Z" fill="white"/>
<path d="M106.991 188.537H100.955V189.77H106.991V188.537Z" fill="white"/>
<path d="M106.991 193.615H100.955V194.848H106.991V193.615Z" fill="white"/>
<path d="M106.991 198.706H100.955V199.939H106.991V198.706Z" fill="white"/>
<path d="M106.991 203.783H100.955V205.017H106.991V203.783Z" fill="white"/>
<path d="M143.661 164.579C132.207 164.579 122.904 173.868 122.904 185.336C122.904 196.79 143.661 225 143.661 225C143.661 225 164.418 196.803 164.418 185.336C164.405 173.868 155.116 164.579 143.661 164.579ZM143.661 194.179C138.78 194.179 134.818 190.217 134.818 185.336C134.818 180.455 138.78 176.493 143.661 176.493C148.542 176.493 152.505 180.455 152.505 185.336C152.505 190.217 148.542 194.179 143.661 194.179Z" fill="#649EFF"/>
<path d="M134.818 185.336C134.818 180.455 138.78 176.493 143.661 176.493V164.579C132.207 164.579 122.904 173.868 122.904 185.336C122.904 196.79 143.661 225 143.661 225V194.179C138.767 194.179 134.818 190.217 134.818 185.336Z" fill="#E3EBF8"/>
<path d="M209.984 178.46H205.996H203.673H201.18H198.858H196.365H194.043H191.55H189.227H186.734H184.412H181.919H179.597H176.356H168.877C167.919 178.46 167.158 179.103 167.158 179.891V193.169C167.158 193.956 167.932 194.599 168.877 194.599H171.042V221.772C171.042 223.53 172.472 224.96 174.23 224.96H181.919H204.631C206.389 224.96 207.819 223.53 207.819 221.772V217.902V201.173V194.586H209.984C210.942 194.586 211.703 193.943 211.703 193.156V179.891C211.703 179.103 210.929 178.46 209.984 178.46Z" fill="#E3EBF8"/>
<path d="M176.623 186.398V221.208C176.623 223.281 178.303 224.96 180.376 224.96H216.156C218.229 224.96 219.908 223.281 219.908 221.208V186.398H176.623Z" fill="#E3EBF8"/>
<path d="M185.681 221.208V186.398H176.641V221.208C176.641 223.281 178.32 224.96 180.393 224.96H189.433C187.36 224.96 185.681 223.281 185.681 221.208Z" fill="#BDD4EF"/>
<path d="M219.918 196.974H195.094V216.668H219.918V196.974Z" fill="#649EFF"/>
<path d="M222.471 170.221H174.069C172.954 170.221 172.035 170.982 172.035 171.913V187.54C172.035 188.472 172.94 189.233 174.069 189.233H222.471C223.587 189.233 224.505 188.472 224.505 187.54V171.913C224.505 170.969 223.6 170.221 222.471 170.221Z" fill="#649EFF"/>
<path d="M180.865 187.527V171.9C180.865 170.969 181.77 170.208 182.898 170.208H174.094C172.979 170.208 172.061 170.969 172.061 171.9V187.527C172.061 188.459 172.966 189.22 174.094 189.22H182.898C181.77 189.22 180.865 188.459 180.865 187.527Z" fill="#E3EBF8"/>
<path d="M216.105 200.661H198.93V202.734H216.105V200.661Z" fill="white"/>
<path d="M205.49 204.65H198.93V206.723H205.49V204.65Z" fill="white"/>
<path d="M189.43 170.221H186.701V178.461H189.43V170.221Z" fill="#83BBFF"/>
<path d="M195.096 170.221H192.367V178.461H195.096V170.221Z" fill="#83BBFF"/>
<path d="M200.766 170.221H198.037V178.461H200.766V170.221Z" fill="#83BBFF"/>
<path d="M206.436 170.221H203.707V178.461H206.436V170.221Z" fill="#83BBFF"/>
<path d="M212.116 170.221H209.387V178.461H212.116V170.221Z" fill="#83BBFF"/>
<path d="M217.782 170.221H215.053V178.461H217.782V170.221Z" fill="#83BBFF"/>
<path d="M185.541 191.594C184.15 191.594 183.021 192.723 183.021 194.114V206.578C183.021 207.969 184.15 209.098 185.541 209.098C186.931 209.098 188.06 207.969 188.06 206.578V194.114C188.06 192.723 186.931 191.594 185.541 191.594Z" fill="white"/>
</svg>
