<svg width="23" height="23" viewBox="0 0 23 23" fill="none" xmlns="http://www.w3.org/2000/svg">
<path d="M11.5007 7.66658C9.38273 7.66658 7.66732 9.382 7.66732 11.4999C7.66732 13.6178 9.38273 15.3333 11.5007 15.3333C13.6186 15.3333 15.334 13.6178 15.334 11.4999C15.334 9.382 13.6186 7.66658 11.5007 7.66658ZM20.0681 10.5416C19.6273 6.54533 16.4552 3.37325 12.459 2.93242V0.958252H10.5423V2.93242C6.54607 3.37325 3.37398 6.54533 2.93315 10.5416H0.958984V12.4583H2.93315C3.37398 16.4545 6.54607 19.6266 10.5423 20.0674V22.0416H12.459V20.0674C16.4552 19.6266 19.6273 16.4545 20.0681 12.4583H22.0423V10.5416H20.0681ZM11.5007 18.2083C7.79669 18.2083 4.79232 15.2039 4.79232 11.4999C4.79232 7.79596 7.79669 4.79158 11.5007 4.79158C15.2046 4.79158 18.209 7.79596 18.209 11.4999C18.209 15.2039 15.2046 18.2083 11.5007 18.2083Z" fill="#414D55"/>
</svg>
