<svg width="72" height="72" viewBox="0 0 72 72" fill="none" xmlns="http://www.w3.org/2000/svg">
<path d="M36.0225 0C45.968 0 54.9577 4.02286 61.4634 10.53L72 0V31.5H40.4803L54.9794 17.01C50.1203 12.109 43.4632 9.00513 35.996 9.00001C24.2551 9.01131 14.2711 16.5229 10.5816 27H10.502C9.98893 28.4475 9.59602 29.9516 9.33532 31.5H0.277628C2.48593 13.7358 17.6 0 35.9775 0H36.0225Z" fill="white" fill-opacity="0.49"/>
<path d="M0 40.5V72L10.5366 61.47C17.0423 67.9771 26.032 72 35.9775 72L36.0225 72C54.4 72 69.5141 58.2642 71.7224 40.5H62.6647C62.404 42.0484 62.0111 43.5525 61.498 45H61.4184C57.729 55.4767 47.7456 62.9881 36.0053 63C28.5376 62.9952 21.88 59.8912 17.0206 54.99L31.5197 40.5H0Z" fill="white" fill-opacity="0.49"/>
</svg>
