<svg width="28" height="28" viewBox="0 0 28 28" fill="none" xmlns="http://www.w3.org/2000/svg">
<circle cx="14" cy="14" r="14" fill="#2F89CE"/>
<path d="M6.54627 14.2618L9.76494 15.4619L11.0197 19.4989C11.0742 19.7717 11.4015 19.8262 11.6198 19.6626L13.42 18.1896C13.5837 18.026 13.8565 18.026 14.0747 18.1896L17.2933 20.5354C17.5115 20.6991 17.8389 20.59 17.8934 20.3172L20.2938 8.86096C20.3483 8.58819 20.0755 8.31543 19.8028 8.42454L6.54627 13.5526C6.21895 13.6617 6.21895 14.1527 6.54627 14.2618ZM10.856 14.8618L17.1842 10.9885C17.2933 10.934 17.4024 11.0977 17.2933 11.1522L12.1107 16.0075C11.9471 16.1711 11.7834 16.3893 11.7834 16.6621L11.6198 17.9714C11.6198 18.1351 11.347 18.1896 11.2924 17.9714L10.6378 15.571C10.4741 15.2983 10.5832 14.971 10.856 14.8618Z" fill="white"/>
</svg>
