<svg width="83" height="84" fill="none" xmlns="http://www.w3.org/2000/svg"><path d="M56.128 18.704c-.454-2.587-.811-5.175-1.144-7.762l-.12-.97-.06-.486-.015-.12c-.004-.04-.008-.086-.016-.112l-.04-.182a3.958 3.958 0 00-.535-1.316 3.707 3.707 0 00-.92-.984 3.538 3.538 0 00-1.148-.558 3.352 3.352 0 00-1.199-.106l-1.81.166-1.941.17c-.648.055-1.294.11-1.942.16-2.588.208-5.176.39-7.764.549-1.294.083-2.59.154-3.883.226l-.486.027-.242.013-.06.003-.03.002-.012.003-.044.01a.967.967 0 01-.09.016c-.03.004-.06.005-.088.019-.056.021-.113.03-.169.049a1.83 1.83 0 00-.584.339 1.804 1.804 0 00-.624 1.09c-.02.098-.018.2-.021.301a.711.711 0 01.007.077v.068l.002.026.018.485.063 1.942c.084 2.588.143 5.178.192 7.766.014.648.02 1.295.03 1.943v.03l-.001.052-.003.105-.007.21-.02.42c-.003.141-.023.28-.041.42l-.06.42c-.035.279-.112.553-.178.828-.037.136-.066.276-.114.408-.045.134-.092.268-.14.401a9.33 9.33 0 01-4.341 5.002c-.253.128-.506.254-.767.367-.264.103-.53.2-.797.293-.272.078-.547.15-.822.216-.276.06-.557.099-.837.14-.14.024-.28.033-.42.042l-.421.022c-.334.017-.427.009-.603.01l-.97.003-3.885-.02c-1.295-.015-2.59-.024-3.885-.046l-3.6-.063a1.687 1.687 0 00-1.08.393 1.801 1.801 0 00-.398.479 1.744 1.744 0 00-.205.61l-.009.042-.005.022-.003.012v.03l-.01.243-.019.486-.04.97-.08 1.943c-.062 1.295-.119 2.59-.191 3.884-.065 1.295-.144 2.59-.22 3.886-.084 1.295-.164 2.59-.259 3.885-.045.648-.091 1.295-.142 1.942l-.123 1.646c-.01.372.05.75.184 1.12.134.368.344.721.615 1.036.27.316.607.586.99.794l.144.081c.05.023.1.041.152.064l.154.066c.05.026.106.033.159.052l.161.05c.028.007.055.018.082.025l.084.015.17.035.086.018c.015.003.024.007.046.009l.06.007c1.296.133 2.591.278 3.886.43 2.59.309 5.181.644 7.773 1.077-2.587.457-5.174.816-7.762 1.15-1.294.163-2.588.32-3.881.466l-.06.006c-.02.003-.05.003-.075.005l-.157.007-.316.012-.159.004c-.052 0-.105-.005-.159-.008l-.318-.021c-.106-.01-.213-.011-.318-.03l-.317-.053c-.106-.019-.213-.036-.318-.059l-.313-.084a7.135 7.135 0 01-2.346-1.146 7.334 7.334 0 01-1.82-1.962 7.372 7.372 0 01-1.006-2.554l-.036-.171c-.011-.058-.016-.115-.024-.172l-.04-.346-.02-.173-.014-.157-.02-.243-.083-.97c-.057-.648-.11-1.294-.16-1.941-.107-1.294-.2-2.59-.295-3.883-.088-1.294-.18-2.589-.256-3.882-.084-1.294-.153-2.589-.226-3.883l-.1-1.941-.049-.971-.023-.486-.01-.242-.002-.03v-.05l.001-.1.003-.2a8.893 8.893 0 01.613-3.165 8.992 8.992 0 017.504-5.615l.412-.029c.131-.009.3-.017.355-.018l.486-.016.971-.026 1.941-.051c1.295-.033 2.589-.054 3.884-.082l3.883-.055.971-.008c.147-.002.378-.001.368-.01a.45.45 0 01.063-.004c.022.001.043.003.063-.006.039-.012.08-.01.12-.02a.484.484 0 01.118-.032.406.406 0 01.112-.043c.036-.019.069-.042.109-.054a1.398 1.398 0 00.646-.724.48.48 0 01.026-.056c.012-.017.008-.04.015-.058.006-.04.034-.075.031-.12a.436.436 0 01.011-.06c.005-.021.014-.04.01-.063 0-.022 0-.043.003-.065l.005-.032.003-.016.002-.01v-.03c.003-.647.003-1.294.012-1.942.025-2.59.06-5.179.12-7.767l.045-1.943.014-.485.008-.188.012-.204.03-.408a9.13 9.13 0 01.313-1.607 8.837 8.837 0 011.462-2.898 8.931 8.931 0 012.373-2.16 8.626 8.626 0 012.975-1.16c.261-.048.526-.078.788-.11.132-.019.264-.023.395-.027l.395-.011.197-.003h.081l.06.004.243.01.486.022c1.295.06 2.59.119 3.884.19a423.591 423.591 0 019.712.62l1.942.15.972.08.485.04.278.025.338.037a7.302 7.302 0 012.553.802 7.1 7.1 0 012.036 1.628 6.83 6.83 0 011.27 2.197 6.62 6.62 0 01.373 2.436l-.013.303c-.001.054-.007.09-.01.131l-.014.122-.055.486-.112.971c-.305 2.587-.639 5.177-1.069 7.769z" fill="#649EFF"/><path d="M44.47 37.551c-.355.19-.713.369-1.063.564-.354.186-.702.383-1.048.58-.692.394-1.371.803-2.03 1.233-.662.427-1.303.879-1.926 1.345-.312.232-.614.476-.916.716-.297.248-.593.493-.878.75a23.15 23.15 0 00-1.634 1.592 17.354 17.354 0 00-1.409 1.708l-.16.22c-.053.074-.101.151-.152.227-.098.153-.202.3-.298.454l-.278.464c-.048.076-.09.155-.133.235l-.127.237-.126.236c-.041.08-.077.161-.116.241-.076.162-.16.32-.23.483l-.211.492c-.07.163-.127.333-.191.499-.243.67-.46 1.347-.618 2.05a21.56 21.56 0 00-.396 2.128l-.038.27-.03.274-.06.547c-.034.379-.074.756-.101 1.135-.024.378-.059.754-.072 1.132l-.03.566c-.01.188-.012.377-.02.565a55.058 55.058 0 00.057 4.55c.035.764.083 1.54.135 2.317l.168 2.362c.055.793.117 1.594.165 2.4l.158 2.328.05.565.024.26.013.125.015.117c.038.31.085.564.14.758.054.195.111.327.17.423.018.021.03.047.046.067.017.019.028.042.046.06a.378.378 0 01.026.029c.008.01.012.02.026.032.024.023.043.05.066.074.182.193.418.35.67.448.254.097.517.14.755.119l2.318-.074 2.39-.064c3.186-.087 6.373-.149 9.56-.2l2.389-.033 1.195-.014.145-.002a.554.554 0 01.118-.012c.028.005.051-.01.076-.014a.504.504 0 01.076-.01c.195-.045.377-.135.54-.26a1.3 1.3 0 00.388-.468c.087-.18.14-.366.148-.578l.006-.039v-.143l-.001-.299-.001-.597-.003-1.196.014-4.78.041-4.78c.005-.216 0-.335.02-.74.009-.17.02-.34.031-.51.013-.17.045-.34.07-.51.027-.17.053-.34.086-.507.04-.167.083-.334.127-.5a8.2 8.2 0 01.325-.977c.03-.08.061-.16.094-.238l.11-.232c.074-.155.15-.309.227-.462a2.77 2.77 0 01.124-.224l.133-.22c.09-.145.178-.29.275-.431.1-.138.203-.274.307-.409.104-.134.207-.27.324-.395.23-.25.454-.506.712-.727a9.19 9.19 0 013.508-2.005c.327-.085.656-.175.99-.234.166-.026.334-.05.501-.073l.252-.032c.084-.009.167-.01.251-.016.168-.008.336-.014.504-.019l.125-.003h.103l.149.003.598.014c1.594.033 3.187.079 4.78.123 1.595.044 3.188.099 4.782.153l1.196.044.597.023.299.01.075.003.037.002h.074a2.28 2.28 0 00.945-.142l.03-.009.027-.014.056-.029c.037-.018.076-.034.115-.05.034-.024.07-.046.106-.067.036-.023.078-.039.108-.068.064-.055.145-.094.203-.159.032-.029.065-.056.1-.085.032-.029.057-.064.088-.095.237-.256.432-.563.534-.913.01-.044.021-.088.034-.132l.02-.067c.008-.022.007-.045.01-.069.007-.047.015-.092.024-.14l.007-.034c.002-.015.006-.017.007-.047l.008-.15.061-1.195.13-2.39c.181-3.189.385-6.376.62-9.564.118-1.594.242-3.188.375-4.782l.026-.3.006-.075.004-.067.006-.107.016-.218.004-.055-.003-.053-.005-.11a8.405 8.405 0 01-.006-.22l-.03-.218c-.01-.072-.012-.15-.031-.22l-.052-.218-.024-.11c-.01-.036-.025-.071-.036-.106l-.073-.216c-.021-.075-.06-.14-.09-.21l-.094-.212-.116-.2c-.04-.067-.072-.141-.122-.202l-.136-.192c-.024-.032-.045-.066-.07-.096l-.078-.089a4.49 4.49 0 00-1.546-1.18c-.077-.035-.156-.062-.234-.093-.079-.03-.157-.068-.239-.09l-.246-.068c-.083-.024-.166-.052-.252-.062l-.257-.044-.131-.023-.15-.015-.597-.066c-1.594-.18-3.188-.359-4.783-.581 1.592-.237 3.185-.43 4.777-.625l.598-.07.15-.018.167-.01.34-.017c.114-.01.227-.001.342.004l.345.02c.115.007.228.03.342.046.114.019.23.034.344.058.91.196 1.79.611 2.549 1.206l.143.111c.047.038.09.08.135.12l.267.25c.092.08.166.176.25.266l.244.277.218.297c.07.101.15.198.209.307l.188.322c.03.054.064.107.092.163l.079.17.156.343c.053.114.087.235.13.353.041.12.083.24.12.361l.088.37.042.186.02.093.013.095.049.38.022.19.016.157.028.299c.149 1.593.287 3.185.42 4.778.264 3.186.497 6.372.707 9.558l.153 2.39.074 1.194.008.15c.002.018.002.066.002.102v.114c0 .152 0 .304-.004.457-.003.076 0 .153-.008.23l-.023.228c-.016.154-.033.306-.052.459-.367 2.446-1.908 4.708-4.118 5.953a8.505 8.505 0 01-3.632 1.086l-.239.017-.097.006-.075.004-.299.013-.597.027-1.196.056c-1.593.068-3.186.138-4.779.197-1.593.058-3.186.12-4.78.167l-.597.02-.15.004-.034.001-.012.003-.023.005a.754.754 0 01-.094.014c-.016.001-.031 0-.047.003l-.044.015a.691.691 0 01-.111.024l-.02.01a1.677 1.677 0 00-.701.448c-.048.036-.073.093-.113.135-.022.02-.033.049-.047.073a.608.608 0 01-.05.072c-.012.025-.02.053-.035.078a.665.665 0 01-.022.037c-.007.011-.016.023-.018.038a.543.543 0 01-.03.078.264.264 0 01-.018.038c-.004.013-.005.027-.009.04-.011.055-.039.104-.039.16a.453.453 0 01-.02.08c0 .029 0 .057-.002.084 0 .029-.012.054-.009.083a.64.64 0 01.004.086c-.006-.007.001.272.005.455l.086 4.78.06 4.781.008 1.195.004.598.002.298v.157l-.007.259a9.322 9.322 0 01-1.014 4.015 9.224 9.224 0 01-2.658 3.162 9.252 9.252 0 01-3.771 1.708c-.172.03-.343.058-.515.083-.172.023-.344.055-.516.061-.172.012-.345.02-.517.028l-.259.01h-.155l-1.195-.004-2.391-.01a868.477 868.477 0 01-9.562-.112l-2.39-.042-2.463-.058a8.861 8.861 0 01-1.994-.288 8.877 8.877 0 01-1.854-.724 8.95 8.95 0 01-3.003-2.549 14.576 14.576 0 01-.286-.407c-.094-.137-.185-.294-.273-.44-.09-.151-.166-.307-.246-.462-.077-.155-.144-.314-.214-.47a8.768 8.768 0 01-.535-1.856 12.313 12.313 0 01-.168-1.611l-.008-.181-.005-.174a13.752 13.752 0 01-.007-.336l-.002-.63.037-2.45.052-2.38c.03-1.596.078-3.225.172-4.88.05-.826.118-1.66.198-2.494.047-.418.086-.835.145-1.253l.082-.626c.029-.209.063-.416.094-.625.123-.833.28-1.66.45-2.481.085-.41.183-.819.273-1.227.05-.207.105-.42.157-.628l.081-.314.09-.314c.232-.835.515-1.668.843-2.485.324-.817.71-1.619 1.143-2.39a17.41 17.41 0 011.462-2.215l.203-.261c.066-.088.135-.174.208-.257l.43-.5c.145-.163.297-.32.448-.48.076-.078.149-.16.227-.236l.236-.226c.159-.149.31-.305.475-.445l.488-.426c.162-.142.336-.27.503-.404.168-.134.337-.266.51-.387.678-.506 1.386-.96 2.106-1.382.72-.42 1.456-.806 2.206-1.15a27.566 27.566 0 012.273-.936 31.182 31.182 0 014.672-1.31z" fill="#649EFF"/><path d="M23.821 47.603c-.093-.26-.182-.523-.264-.788-.083-.265-.155-.533-.23-.802-.036-.135-.07-.27-.102-.407a11.47 11.47 0 01-.092-.41l-.087-.412-.076-.415a17.45 17.45 0 01-.25-3.426 15.08 15.08 0 01.161-1.763c.04-.297.1-.592.16-.889.028-.149.071-.294.107-.442.04-.147.073-.297.117-.444a13.02 13.02 0 011.561-3.414l.275-.395c.093-.132.183-.265.287-.39.202-.25.398-.51.619-.743l.328-.358c.113-.117.23-.225.347-.34.117-.11.233-.225.353-.334l.368-.314a15.697 15.697 0 013.23-2.066c.142-.069.284-.142.427-.206l.432-.187.435-.182c.144-.058.287-.106.43-.16.287-.102.573-.214.864-.306l.435-.143c.144-.049.296-.087.443-.13l.448-.127.445-.11c.298-.078.59-.14.886-.206a37.03 37.03 0 011.746-.321c2.297-.365 4.475-.538 6.443-.83.243-.038.487-.075.723-.117l.684-.136c.114-.023.228-.038.341-.067l.34-.08c.224-.057.452-.102.675-.166.447-.131.895-.247 1.337-.4l.332-.107.166-.055.165-.062.657-.244c3.492-1.363 6.779-3.485 9.874-6.014l.047-.04a3.952 3.952 0 016.426 2.6l.03.256.024.223.042.432a44.095 44.095 0 01.165 2.521 52.23 52.23 0 01.028 3.338 48.814 48.814 0 01-.361 5.022c-.07.559-.156 1.12-.246 1.679-.37 2.239-.933 4.485-1.78 6.694-.437 1.101-.928 2.197-1.539 3.256a19.148 19.148 0 01-2.13 3.049c-.408.48-.855.936-1.322 1.371-.241.213-.474.43-.728.628-.126.1-.248.204-.377.3l-.39.284-.099.072-.107.072-.215.144c-.143.095-.292.197-.418.26l-.785.431c-.264.15-.521.264-.78.39-.258.121-.514.249-.774.365a29.8 29.8 0 01-6.43 2.002 28.04 28.04 0 01-6.58.443c-2.176-.12-4.32-.497-6.328-1.196a36.837 36.837 0 006.13-.985 34.16 34.16 0 005.652-1.949 32.67 32.67 0 005.053-2.843c.196-.135.385-.279.577-.416.189-.14.388-.277.555-.42l.526-.416c.098-.071.151-.133.215-.196l.095-.094.048-.045.051-.055c.281-.286.545-.589.798-.903.246-.322.48-.655.701-1.003.873-1.4 1.522-3.026 1.987-4.765.47-1.74.766-3.587.948-5.47.044-.473.084-.945.11-1.423.032-.476.06-.955.075-1.434.019-.48.026-.962.032-1.444.007-.483.008-.966 0-1.45a66.88 66.88 0 00-.105-2.904c-.03-.482-.066-.964-.103-1.44a37.29 37.29 0 00-.065-.709l-.036-.344-.035-.296 6.473 2.558c-1.803 1.477-3.72 2.864-5.797 4.064-.511.31-1.05.583-1.58.869-.268.138-.542.269-.812.402l-.407.2-.416.189-.835.365-.853.337c-.142.055-.282.114-.427.165l-.434.153c-.29.1-.576.207-.871.296l-.885.263-.22.065-.225.058-.449.113c-.3.072-.595.158-.9.213l-.91.18c-.303.06-.612.098-.918.147l-.459.07c-.152.024-.308.034-.462.053l-.924.09c-.302.022-.596.039-.891.056-2.344.113-4.5.03-6.515.074-.249.008-.502.012-.747.023-.243.012-.495.02-.733.037-.24.014-.483.027-.717.051l-.355.032-.347.042c-.231.024-.466.062-.701.097-.237.032-.467.082-.703.122-.116.022-.237.04-.35.065l-.334.077-.337.074c-.111.027-.218.06-.328.09-1.753.477-3.344 1.272-4.662 2.497l-.24.238c-.079.08-.165.157-.237.244-.149.17-.308.337-.447.521l-.218.272-.203.287-.102.144c-.033.049-.063.1-.095.15l-.193.3a13.962 13.962 0 00-1.236 2.695c-.65 1.935-.97 4.075-1.12 6.278z" fill="#7CC7B9"/></svg>