<svg width="12" height="12" fill="none" xmlns="http://www.w3.org/2000/svg"><path d="M11.75 5.25c.063 0 .094.031.156.094.063.062.094.093.094.156v1c0 .063-.031.125-.094.188-.062.062-.094.062-.156.062h-5v5c0 .063-.031.125-.094.188C6.594 12 6.563 12 6.5 12h-1c-.063 0-.125 0-.188-.063-.062-.062-.062-.124-.062-.187v-5h-5c-.063 0-.125 0-.188-.063C0 6.625 0 6.563 0 6.5v-1c0-.063 0-.094.063-.156.062-.063.124-.094.187-.094h5v-5c0-.063 0-.094.063-.156C5.375.03 5.438 0 5.5 0h1c.063 0 .094.031.156.094.063.062.094.093.094.156v5h5z" fill="#FF671F"/></svg>