<svg width="25" height="25" fill="none" xmlns="http://www.w3.org/2000/svg"><path d="M16.438 24.875H8.563a1.687 1.687 0 01-1.688-1.688v-5.062H1.812a1.687 1.687 0 01-1.687-1.688V8.563a1.687 1.687 0 011.688-1.687h5.062V1.812A1.687 1.687 0 018.563.125h7.874a1.687 1.687 0 011.688 1.688v5.062h5.063a1.687 1.687 0 011.687 1.688v7.874a1.687 1.687 0 01-1.688 1.688h-5.062v5.063a1.687 1.687 0 01-1.688 1.687zm-7.313-2.25h6.75v-6.75h6.75v-6.75h-6.75v-6.75h-6.75v6.75h-6.75v6.75h6.75v6.75z" fill="#04B6B1"/></svg>