<svg width="76" height="77" fill="none" xmlns="http://www.w3.org/2000/svg"><path d="M51.503 16.88c-.42-2.387-.75-4.776-1.056-7.164l-.112-.896-.055-.448-.013-.112c-.005-.036-.008-.078-.015-.102l-.036-.168a3.653 3.653 0 00-.495-1.215 3.42 3.42 0 00-.85-.909 3.264 3.264 0 00-1.06-.514c-.37-.1-.742-.134-1.105-.098l-1.672.153-1.792.156a383.427 383.427 0 01-8.96.655c-1.193.077-2.389.143-3.583.21l-.448.024-.224.012-.056.003-.027.002-.01.002-.042.01a.886.886 0 01-.083.015c-.028.003-.056.004-.081.017-.051.02-.104.028-.156.045-.202.066-.38.182-.539.313a1.666 1.666 0 00-.576 1.006c-.019.09-.017.185-.02.278a.651.651 0 01.007.071v.063l.002.024.017.448.057 1.792c.079 2.39.133 4.78.178 7.17.013.597.018 1.194.027 1.792v.075l-.003.098-.007.194-.017.388c-.004.13-.022.258-.04.387-.016.129-.035.258-.054.387-.032.258-.104.511-.165.765-.034.126-.06.255-.105.377a8.613 8.613 0 01-4.136 4.987 12.73 12.73 0 01-.708.338c-.244.096-.49.186-.736.271-.251.072-.505.139-.759.2-.255.056-.514.091-.772.13-.129.021-.258.03-.388.038l-.389.02c-.308.015-.394.008-.556.01l-.896.002-3.586-.018c-1.195-.015-2.39-.023-3.585-.042l-3.324-.059a1.558 1.558 0 00-.996.363 1.66 1.66 0 00-.369.442 1.61 1.61 0 00-.189.563l-.008.039-.004.02-.003.011v.028l-.009.224-.018.448-.037.897-.074 1.793c-.057 1.195-.11 2.39-.176 3.585-.06 1.196-.133 2.39-.203 3.587-.078 1.195-.152 2.39-.239 3.586-.041.598-.084 1.195-.131 1.793l-.114 1.52c-.009.342.047.692.17 1.032.124.34.317.666.567.957.25.292.561.541.914.734l.133.074c.046.021.094.038.14.059l.143.061c.047.024.098.03.146.048l.15.046c.025.007.05.017.075.023l.078.014.156.032.08.017c.014.003.022.006.043.008l.056.007c1.195.123 2.39.256 3.586.396 2.391.286 4.783.595 7.175.995-2.388.422-4.776.753-7.165 1.061-1.194.151-2.389.295-3.583.43l-.056.006c-.017.003-.046.003-.068.005l-.145.006-.292.011-.146.004c-.049 0-.097-.005-.147-.008l-.293-.02c-.098-.008-.197-.01-.295-.027l-.292-.049c-.097-.017-.196-.033-.294-.054l-.288-.077a6.588 6.588 0 01-2.166-1.059 6.771 6.771 0 01-1.68-1.81 6.805 6.805 0 01-.928-2.358l-.033-.158c-.011-.053-.016-.106-.023-.158l-.038-.32-.017-.16-.013-.145-.02-.224-.076-.895c-.052-.598-.1-1.195-.147-1.792-.098-1.195-.184-2.39-.272-3.584-.081-1.195-.166-2.39-.237-3.584-.077-1.194-.141-2.39-.209-3.584L.527 31.13l-.045-.896-.022-.448-.01-.224v-.166l.003-.185a8.209 8.209 0 01.565-2.92 8.3 8.3 0 016.926-5.183l.381-.028c.122-.008.277-.016.329-.017l.448-.014.896-.025 1.792-.047c1.195-.03 2.39-.05 3.585-.075l3.584-.052.897-.007c.136-.002.35 0 .34-.009a.425.425 0 01.058-.003c.02 0 .04.002.057-.006.036-.011.075-.01.112-.019a.445.445 0 01.108-.028.375.375 0 01.103-.04c.034-.018.064-.04.101-.05a1.292 1.292 0 00.597-.67.432.432 0 01.023-.05c.012-.017.008-.037.015-.054.005-.037.031-.07.028-.11a.416.416 0 01.01-.057c.005-.019.013-.037.01-.058 0-.02 0-.04.002-.059l.005-.03.002-.015.002-.008v-.028c.004-.598.004-1.195.012-1.793.022-2.39.055-4.78.11-7.17l.042-1.793.012-.448.009-.174.01-.188.027-.376c.056-.5.145-1 .29-1.484a8.156 8.156 0 011.35-2.675 8.245 8.245 0 012.19-1.994 7.963 7.963 0 012.746-1.07c.241-.044.486-.072.728-.102.121-.017.243-.02.364-.025l.365-.01.182-.003h.046l.028.001.056.003.224.009.449.02c1.195.055 2.39.11 3.585.176a391.021 391.021 0 018.965.571l1.793.14.896.073.448.037.257.023.312.034a6.74 6.74 0 012.356.741 6.557 6.557 0 011.88 1.503 6.294 6.294 0 011.172 2.028c.258.73.372 1.5.344 2.248l-.012.28c0 .05-.006.083-.01.121l-.012.113-.05.448-.104.896c-.282 2.388-.59 4.78-.986 7.172z" fill="#649EFF" fill-opacity=".77"/><path d="M40.744 34.278c-.329.175-.659.34-.982.52-.327.172-.648.354-.968.535a36.54 36.54 0 00-1.873 1.14 30.81 30.81 0 00-1.778 1.24c-.288.215-.567.44-.846.661-.273.23-.547.456-.81.693a21.16 21.16 0 00-1.508 1.469c-.47.51-.911 1.027-1.3 1.577l-.15.203c-.048.069-.092.14-.139.21-.09.141-.186.277-.275.418l-.257.429a3.27 3.27 0 00-.122.217l-.117.218-.117.218c-.038.074-.071.15-.107.223-.07.15-.147.295-.213.446l-.194.453c-.064.152-.117.308-.176.461a15.757 15.757 0 00-.571 1.892c-.15.646-.28 1.297-.365 1.966l-.036.249-.027.252-.056.505c-.03.35-.068.698-.093 1.047-.022.35-.054.697-.067 1.046l-.027.522c-.009.174-.011.349-.018.522a50.791 50.791 0 00.053 4.2c.031.705.076 1.42.124 2.139l.155 2.18c.051.731.108 1.471.153 2.215l.146 2.15.044.52.024.241.012.115.013.108c.035.286.078.52.129.7.05.18.103.302.158.39.016.02.027.043.042.062.016.017.026.039.043.056a.323.323 0 01.023.026c.007.01.012.018.024.03.022.021.04.046.06.068.17.178.387.322.62.413.234.09.477.13.697.11l2.139-.067 2.206-.06c2.941-.08 5.883-.137 8.824-.185l2.206-.03 1.104-.013.133-.002a.527.527 0 01.11-.01c.025.004.046-.01.07-.013a.455.455 0 01.07-.01 1.315 1.315 0 00.856-.672c.08-.166.13-.338.137-.534l.005-.035v-.409l-.002-.552-.002-1.103.013-4.413.038-4.413c.004-.199-.001-.308.018-.682.008-.157.018-.315.029-.471.011-.157.041-.315.064-.471.025-.157.05-.313.08-.468.037-.154.076-.308.117-.461.074-.309.187-.606.3-.902a5.91 5.91 0 01.087-.22l.1-.215c.069-.142.14-.284.21-.425a2.58 2.58 0 01.115-.207l.123-.203c.083-.134.164-.269.254-.398.092-.127.187-.253.283-.377.096-.125.19-.25.299-.365.212-.231.42-.467.658-.671a8.483 8.483 0 013.237-1.85c.302-.08.606-.163.914-.217.154-.024.308-.047.463-.067l.232-.03c.078-.008.155-.01.233-.014.154-.008.31-.014.464-.018l.116-.003.058-.001h.036l.138.004.552.012c1.471.03 2.942.073 4.413.114 1.472.041 2.943.091 4.414.14l1.103.042.552.021.276.01.069.003h.102c.295.017.587-.021.873-.13l.028-.008.025-.014.051-.026c.034-.017.07-.031.106-.046a1.81 1.81 0 01.098-.063c.034-.02.072-.035.1-.062.059-.051.133-.087.187-.146.03-.027.06-.053.092-.079.03-.027.053-.06.082-.088a2.112 2.112 0 00.524-.965l.019-.06c.007-.022.006-.043.01-.065a1.6 1.6 0 01.021-.129l.007-.032c.001-.013.005-.015.006-.043l.007-.138.057-1.103.12-2.207c.167-2.943.355-5.885.572-8.828.109-1.472.223-2.943.346-4.415l.024-.276.005-.07c.002-.022.005-.048.005-.061l.005-.1.014-.2.004-.05-.003-.05-.004-.1a7.57 7.57 0 01-.005-.204l-.028-.202c-.01-.066-.011-.137-.03-.203l-.047-.2-.022-.102c-.01-.034-.023-.066-.034-.099l-.067-.199c-.02-.069-.055-.128-.083-.194l-.086-.195-.107-.186c-.038-.06-.067-.13-.113-.185l-.126-.177c-.022-.03-.041-.061-.064-.09l-.072-.081a4.143 4.143 0 00-1.427-1.09c-.071-.032-.144-.057-.216-.086-.073-.027-.145-.062-.22-.082l-.228-.064c-.077-.021-.153-.047-.233-.056l-.237-.042-.12-.02-.139-.015-.551-.06c-1.472-.166-2.943-.331-4.416-.536 1.47-.22 2.94-.397 4.41-.577l.552-.065.138-.016.154-.01.315-.015c.105-.01.21-.001.316.003l.317.018c.106.007.21.029.316.043.105.017.212.032.318.053.84.181 1.651.565 2.352 1.114l.133.102c.043.035.082.075.124.112l.247.23c.085.074.153.162.23.245l.226.256.201.274c.065.094.138.183.193.284l.174.297c.028.05.058.099.084.15l.073.157.144.316c.05.106.08.218.12.327.039.11.077.22.111.333l.081.341.04.172.018.087.012.087.045.35.02.176.015.145.026.276c.137 1.47.265 2.94.387 4.41.244 2.94.459 5.882.653 8.823l.142 2.206.067 1.103.008.137c.002.017.002.062.002.095v.105c0 .14 0 .28-.004.422-.002.07 0 .142-.008.212l-.02.211c-.016.142-.03.282-.049.423-.338 2.258-1.761 4.346-3.8 5.496a7.85 7.85 0 01-3.353 1.002l-.22.015-.09.006-.07.003-.275.013-.552.025-1.103.052c-1.471.063-2.942.127-4.412.181-1.47.054-2.941.111-4.412.154l-.552.018-.137.005h-.033l-.01.003-.022.005a.714.714 0 01-.087.013c-.014.001-.028 0-.043.003l-.04.014a.635.635 0 01-.103.022l-.019.01-.039.015a.512.512 0 01-.078.023c-.2.085-.382.214-.53.374-.044.033-.066.087-.103.125-.021.018-.031.045-.045.068a.564.564 0 01-.044.066c-.012.023-.02.049-.034.072a.668.668 0 01-.02.034c-.007.01-.015.021-.017.035a.504.504 0 01-.044.107c-.003.013-.004.025-.008.038-.01.05-.036.095-.036.147a.42.42 0 01-.018.074c0 .026 0 .052-.003.078 0 .026-.01.049-.008.076a.59.59 0 01.004.08c-.005-.007 0 .25.004.42l.08 4.412.054 4.413.009 1.103.003.552.002.275v.144l-.006.24a8.515 8.515 0 01-3.39 6.625 8.54 8.54 0 01-3.48 1.577c-.16.026-.318.053-.476.076-.158.022-.318.05-.476.057-.16.01-.319.019-.478.025l-.239.009h-.143l-1.103-.003-2.207-.01c-2.942-.02-5.884-.05-8.826-.103l-2.207-.039-2.273-.053a8.178 8.178 0 01-1.84-.266 8.193 8.193 0 01-1.712-.668 8.26 8.26 0 01-2.772-2.353 14.08 14.08 0 01-.264-.376c-.087-.126-.17-.27-.252-.407-.082-.138-.153-.282-.227-.425-.071-.144-.133-.29-.197-.435a8.095 8.095 0 01-.494-1.713 11.382 11.382 0 01-.156-1.487l-.007-.167-.005-.16a12.588 12.588 0 01-.006-.31l-.002-.582.034-2.261.048-2.197c.028-1.474.072-2.977.16-4.505.044-.763.108-1.533.182-2.303.043-.386.08-.77.133-1.156l.077-.578c.026-.192.057-.384.086-.577a39.21 39.21 0 01.416-2.29c.078-.38.168-.755.252-1.132.045-.191.096-.387.145-.58l.075-.29.082-.29c.215-.77.476-1.54.779-2.294a18.35 18.35 0 011.055-2.206c.396-.715.85-1.4 1.349-2.044l.187-.242a4.3 4.3 0 01.192-.236l.396-.462c.136-.15.276-.296.415-.443.07-.073.137-.147.21-.218l.217-.208c.147-.138.286-.282.438-.412l.451-.393c.15-.13.31-.248.465-.373a21.115 21.115 0 012.415-1.633 23.03 23.03 0 012.035-1.06 25.42 25.42 0 012.099-.865 28.78 28.78 0 014.312-1.21z" fill="#649EFF" fill-opacity=".77"/><path d="M21.68 43.557c-.086-.24-.17-.483-.245-.727-.076-.245-.143-.493-.212-.741a15.8 15.8 0 01-.094-.375c-.03-.126-.06-.252-.085-.378l-.08-.381-.07-.384a16.108 16.108 0 01-.23-3.161c.023-.538.058-1.084.148-1.628.036-.274.092-.547.148-.82.025-.138.065-.272.098-.409.036-.136.068-.273.108-.41a12.034 12.034 0 011.441-3.151l.254-.365c.085-.121.17-.244.264-.359.187-.231.368-.47.572-.687l.303-.33c.104-.108.213-.208.32-.313.108-.103.215-.209.326-.309l.34-.29a14.575 14.575 0 012.98-1.907c.132-.063.263-.131.396-.19l.398-.172.402-.169c.133-.054.264-.098.397-.147.264-.095.529-.198.797-.283l.401-.132c.134-.045.274-.08.41-.12l.413-.117.41-.102c.276-.072.546-.13.819-.19.543-.116 1.08-.208 1.611-.296 2.12-.337 4.131-.497 5.948-.766.224-.035.45-.07.667-.108l.631-.125c.106-.022.211-.035.315-.063l.314-.074c.207-.052.417-.094.623-.152.413-.122.827-.229 1.234-.37l.307-.1.153-.05.152-.056.607-.226c3.224-1.258 6.258-3.217 9.114-5.551l.044-.036a3.648 3.648 0 015.931 2.398l.028.237.023.206.038.399a40.808 40.808 0 01.152 2.327c.04 1.027.053 2.053.026 3.08a45.045 45.045 0 01-.333 4.637 46.257 46.257 0 01-.227 1.55c-.342 2.066-.861 4.14-1.644 6.179-.403 1.016-.856 2.027-1.42 3.005-.552.98-1.208 1.93-1.965 2.814-.377.444-.79.864-1.22 1.267-.224.196-.44.395-.673.58-.116.092-.229.187-.348.275l-.36.263-.091.066-.1.067-.198.133c-.132.087-.27.181-.385.24l-.726.398c-.243.138-.48.244-.719.359-.238.112-.475.23-.715.337a27.506 27.506 0 01-5.935 1.849 25.885 25.885 0 01-6.074.409c-2.009-.111-3.987-.46-5.841-1.105a34 34 0 005.66-.909 31.529 31.529 0 005.216-1.799 30.152 30.152 0 004.664-2.624c.181-.124.355-.258.532-.385.175-.128.358-.255.513-.387l.485-.384c.09-.066.14-.122.2-.18l.086-.087.044-.042.048-.05c.26-.264.503-.544.736-.834.227-.298.444-.605.648-.926.805-1.293 1.404-2.794 1.834-4.399.434-1.606.706-3.31.875-5.05.04-.435.077-.872.102-1.313.029-.439.054-.88.069-1.323.017-.443.024-.888.03-1.333.006-.446.006-.891 0-1.339a61.846 61.846 0 00-.098-2.68 88.88 88.88 0 00-.095-1.33c-.018-.22-.038-.438-.06-.654l-.033-.317-.033-.274 5.976 2.362c-1.665 1.363-3.435 2.643-5.352 3.751-.471.286-.97.538-1.458.802-.247.128-.5.248-.75.372l-.376.184-.383.174-.771.337-.787.312c-.131.05-.261.105-.394.152l-.4.141c-.269.092-.533.19-.805.273l-.817.243-.204.06-.207.053-.414.105c-.277.066-.55.145-.831.197l-.84.166c-.28.054-.565.09-.847.135l-.424.064c-.14.023-.284.032-.427.05l-.853.082c-.278.021-.55.036-.822.053-2.164.104-4.154.027-6.014.068-.23.007-.463.01-.69.02-.224.012-.456.019-.675.035-.223.013-.447.025-.663.048l-.328.028-.32.04c-.213.022-.43.057-.647.09-.219.029-.431.075-.649.112-.107.02-.219.037-.323.06l-.309.071-.31.068c-.103.025-.202.056-.303.083-1.619.44-3.087 1.174-4.303 2.305l-.222.22c-.073.074-.152.145-.219.225-.137.157-.284.311-.413.481l-.2.251-.188.265-.094.133c-.03.045-.059.092-.088.138l-.178.278a12.886 12.886 0 00-1.14 2.487c-.601 1.786-.897 3.762-1.035 5.795z" fill="#7CC7B9"/></svg>