<svg width="27" height="27" fill="none" xmlns="http://www.w3.org/2000/svg"><circle cx="13.5" cy="13.5" r="13" fill="#649EFF" stroke="#fff"/><path d="M13.5 15.5c.911 0 1.65-.672 1.65-1.5s-.739-1.5-1.65-1.5c-.911 0-1.65.672-1.65 1.5s.739 1.5 1.65 1.5z" fill="#fff"/><path d="M17.9 10h-1.743l-.682-.675a1.097 1.097 0 00-.367-.24A1.188 1.188 0 0014.666 9h-2.332c-.308 0-.605.12-.814.325l-.676.675H9.1c-.605 0-1.1.45-1.1 1v6c0 .55.495 1 1.1 1h8.8c.605 0 1.1-.45 1.1-1v-6c0-.55-.495-1-1.1-1zm-4.4 6.5c-1.518 0-2.75-1.12-2.75-2.5s1.232-2.5 2.75-2.5 2.75 1.12 2.75 2.5-1.232 2.5-2.75 2.5z" fill="#fff"/></svg>