<svg width="24" height="30" fill="none" xmlns="http://www.w3.org/2000/svg"><path d="M23.75 20.115a8.906 8.906 0 01-8.906 8.906c-4.919 0-7.092-4.805-7.092-9.724 0-4.919 2.173-8.088 7.092-8.088a8.906 8.906 0 018.906 8.906z" fill="#FF671F"/><g filter="url(#filter0_b_53963_858)"><path d="M0 4.286A4.286 4.286 0 014.286 0h8.848a4.286 4.286 0 014.285 4.286v21.428A4.286 4.286 0 0113.134 30H4.286A4.286 4.286 0 010 25.714V4.286z" fill="#BEBDBD" fill-opacity=".37"/></g><path d="M6.774 6.774a1.935 1.935 0 11-3.87 0 1.935 1.935 0 013.87 0zm6.775 0a1.936 1.936 0 11-3.872 0 1.936 1.936 0 013.872 0zm-6.775 7.742a1.935 1.935 0 11-3.87 0 1.935 1.935 0 013.87 0zm6.775 0a1.935 1.935 0 11-3.871 0 1.935 1.935 0 013.87 0zm-6.775 7.742a1.936 1.936 0 11-3.87 0 1.936 1.936 0 013.87 0zm6.775 0a1.936 1.936 0 11-3.872 0 1.936 1.936 0 013.872 0z" fill="#fff"/><defs><filter id="filter0_b_53963_858" x="-25" y="-25" width="67.419" height="80" filterUnits="userSpaceOnUse" color-interpolation-filters="sRGB"><feFlood flood-opacity="0" result="BackgroundImageFix"/><feGaussianBlur in="BackgroundImage" stdDeviation="12.5"/><feComposite in2="SourceAlpha" operator="in" result="effect1_backgroundBlur_53963_858"/><feBlend in="SourceGraphic" in2="effect1_backgroundBlur_53963_858" result="shape"/></filter></defs></svg>