<svg width="245" height="225" fill="none" xmlns="http://www.w3.org/2000/svg"><path d="M154.764 71.29V37.36h56.143c18.737 0 33.931 15.194 33.931 33.93h-90.074z" fill="#92B1E0"/><path d="M210.906 37.635v-.289H104.733c-20.56 0-37.237 16.677-37.237 37.237v150.404h110.726V74.583c0-19.012 14.263-34.691 32.684-36.948z" fill="#A0C0EF"/><path d="M210.908 37.635v-.289h-78.37c-20.561 0-37.237 16.677-37.237 37.237v150.404h82.923V74.583c0-19.012 14.262-34.691 32.684-36.948z" fill="#B1CFFE"/><path d="M162.567 74.255H82.701v7.48h79.866v-7.48zm0 19.445H82.701v7.479h79.866V93.7zm0 19.445H82.701v7.479h79.866v-7.479zm0 19.432H82.701v7.479h79.866v-7.479z" fill="#fff"/><path d="M33.227 122.75c-13.082 0-23.67 10.601-23.67 23.67v54.897c0 13.081 10.601 23.67 23.67 23.67 13.08 0 23.67-10.602 23.67-23.67V146.42c0-13.069-10.602-23.67-23.67-23.67z" fill="#E3EBF8"/><path d="M33.227 122.75c-13.082 0-23.67 10.601-23.67 23.67v27.448h47.352V146.42c-.013-13.069-10.614-23.67-23.682-23.67z" fill="#649EFF"/><path d="M18.697 201.317V146.42c0-11.507 8.214-21.085 19.091-23.224a23.95 23.95 0 00-4.58-.446c-13.08 0-23.669 10.601-23.669 23.67v54.897c0 13.081 10.602 23.67 23.67 23.67 1.561 0 3.096-.158 4.58-.446-10.878-2.139-19.092-11.717-19.092-23.224z" fill="#E3EBF8"/><path d="M45.99 141.526a3.578 3.578 0 00-3.582 3.582v17.752c0 1.981 1.6 3.582 3.582 3.582a3.578 3.578 0 003.582-3.582v-17.752c0-1.968-1.6-3.582-3.582-3.582z" fill="#fff"/><path d="M47.977 48.984H36.642V37.648H24.23v11.336H12.893V61.41h11.336v11.323H36.64V61.41h11.337V48.985z" fill="#649EFF"/><path d="M60.03 97.492h-5.76v-5.76h-6.297v5.76h-5.76v6.298h5.76v5.76h6.298v-5.76h5.76v-6.298z" fill="#E3EBF8"/><path d="M210.904 84.542h-5.76v-5.747h-6.298v5.747h-5.76v6.311h5.76V96.6h6.298v-5.747h5.76v-6.31z" fill="#649EFF"/><path d="M31.727 193.93c0 10.864 5.576 20.416 14.026 25.966 6.678-4.186 11.14-11.599 11.14-20.062v-36.41c-14.329 2.769-25.166 15.365-25.166 30.506zM66.486 42.332l1.417-1.207L66.76 39.8l14.25-12.228c.183-.158.34-.368.432-.591a1.529 1.529 0 00-.262-1.574l-.538-.63 5.314-4.553-.67-.774-5.313 4.553-.433-.499a1.552 1.552 0 00-2.178-.17l-14.25 12.228-1.14-1.325-1.418 1.207 2.204 2.572-2.033 1.745-.59-.683-2.363.105 4.593 5.354.459-2.323-.59-.682 2.033-1.745 2.218 2.545zm166.064 99.036l-1.981-2.309-2.165 1.863-19.996-23.289a2.556 2.556 0 00-.971-.696 2.49 2.49 0 00-2.572.433l-1.036.892-7.453-8.686-1.272 1.089 7.452 8.686-.813.696a2.528 2.528 0 00-.814 2.48c.092.393.276.761.538 1.062l19.996 23.29-2.165 1.863 1.981 2.309 4.199-3.608 2.847 3.32-1.115.957.171 3.871 8.738-7.505-3.805-.748-1.115.958-2.847-3.32 4.198-3.608zM113.193 5.752l-1.929-3.543a4.251 4.251 0 00-5.76-1.692c-2.06 1.115-2.808 3.7-1.693 5.76l1.929 3.542 7.453-4.067zm-6.72 5.431l2.309 4.225a4.251 4.251 0 005.76 1.693c2.06-1.115 2.808-3.7 1.693-5.76l-2.31-4.225-7.452 4.067zM175.92 9.19l-3.542 1.915a4.242 4.242 0 004.028 7.466l3.542-1.916-4.028-7.466zm5.389 6.744l4.238-2.297a4.242 4.242 0 00-4.028-7.465l-4.238 2.296 4.028 7.466z" fill="#E3EBF8"/><path d="M145.157 27.1c1.443-2.625.774-5.97-1.706-7.795a6.06 6.06 0 00-7.951.67l9.657 7.124zm-10.784-5.512c-1.22 2.572-.498 5.721 1.877 7.466a6.07 6.07 0 007.688-.407l-9.565-7.059z" fill="#649EFF"/><path d="M239.64 108.212a6.036 6.036 0 00-7.938.8c-2.1 2.244-2.152 5.668-.25 7.978l8.188-8.778zm-6.716 10.076c2.414 1.509 5.629 1.155 7.636-1.01a6.07 6.07 0 00.486-7.689l-8.122 8.699zm-10.288-65.223c-1.05-2.807-4.041-4.474-7.033-3.778-2.991.695-4.946 3.49-4.671 6.481l11.704-2.703zm-11.204 4.605a6.075 6.075 0 006.901 3.438c2.874-.656 4.789-3.267 4.697-6.1l-11.598 2.663z" fill="#E3EBF8"/><path d="M70.051 224.987c-17.149 0-31.057-13.908-31.057-31.057s13.908-31.057 31.057-31.057h9.394v62.114h-9.394z" fill="#649EFF"/><path d="M79.445 224.987c17.153 0 31.057-13.905 31.057-31.057s-13.904-31.057-31.056-31.057c-17.153 0-31.057 13.905-31.057 31.057s13.904 31.057 31.056 31.057z" fill="#E3EBF8"/><path d="M79.446 215.592c11.963 0 21.662-9.698 21.662-21.662 0-11.964-9.699-21.662-21.662-21.662-11.964 0-21.663 9.698-21.663 21.662 0 11.964 9.699 21.662 21.663 21.662z" fill="#BDD4EF"/><path d="M79.449 172.268c-.761 0-1.496.039-2.244.118 10.917 1.115 19.419 10.339 19.419 21.544s-8.516 20.429-19.419 21.544c.735.079 1.483.118 2.244.118 11.966 0 21.662-9.696 21.662-21.662s-9.696-21.662-21.662-21.662z" fill="#649EFF"/><path d="M88.355 190.217h-5.76v-5.76h-6.298v5.76h-5.76v6.298h5.76v5.76h6.298v-5.76h5.76v-6.298z" fill="#fff"/><path d="M122.631 158.202H98.463V225h24.168v-66.798z" fill="#E3EBF8"/><path d="M103.449 158.202h-4.986V225h4.986v-66.798z" fill="#BDD4EF"/><path d="M123.246 148.768H97.581c-1.26 0-2.296.853-2.296 1.903v17.634c0 1.05 1.024 1.902 2.296 1.902h25.665c1.259 0 2.296-.852 2.296-1.902v-17.634c-.013-1.05-1.037-1.903-2.296-1.903z" fill="#649EFF"/><path d="M105.248 168.305v-17.634c0-1.05 1.024-1.903 2.296-1.903h-9.945c-1.26 0-2.296.853-2.296 1.903v17.634c0 1.05 1.023 1.902 2.296 1.902h9.945c-1.272.014-2.296-.839-2.296-1.902z" fill="#E3EBF8"/><path d="M117.814 203.783a2.52 2.52 0 00-2.519 2.52v12.464a2.52 2.52 0 005.038 0v-12.464a2.52 2.52 0 00-2.519-2.52zm-10.823-30.505h-6.036v1.233h6.036v-1.233zm0 5.077h-6.036v1.234h6.036v-1.234zm0 5.091h-6.036v1.234h6.036v-1.234zm0 5.091h-6.036v1.233h6.036v-1.233zm0 5.078h-6.036v1.233h6.036v-1.233zm0 5.091h-6.036v1.233h6.036v-1.233zm0 5.077h-6.036v1.234h6.036v-1.234z" fill="#fff"/><path d="M143.661 164.579c-11.454 0-20.757 9.289-20.757 20.757 0 11.454 20.757 39.664 20.757 39.664s20.757-28.197 20.757-39.664c-.013-11.468-9.302-20.757-20.757-20.757zm0 29.6c-4.881 0-8.843-3.962-8.843-8.843s3.962-8.843 8.843-8.843 8.844 3.962 8.844 8.843-3.963 8.843-8.844 8.843z" fill="#649EFF"/><path d="M134.818 185.336c0-4.881 3.962-8.843 8.843-8.843v-11.914c-11.454 0-20.757 9.289-20.757 20.757 0 11.454 20.757 39.664 20.757 39.664v-30.821a8.838 8.838 0 01-8.843-8.843zm75.166-6.876h-41.107c-.958 0-1.719.643-1.719 1.431v13.278c0 .787.774 1.43 1.719 1.43h2.165v27.173a3.191 3.191 0 003.188 3.188h30.401a3.191 3.191 0 003.188-3.188v-27.186h2.165c.958 0 1.719-.643 1.719-1.43v-13.265c0-.788-.774-1.431-1.719-1.431z" fill="#E3EBF8"/><path d="M176.623 186.398v34.81a3.752 3.752 0 003.753 3.752h35.78a3.75 3.75 0 003.752-3.752v-34.81h-43.285z" fill="#E3EBF8"/><path d="M185.681 221.208v-34.81h-9.04v34.81a3.75 3.75 0 003.752 3.752h9.04a3.75 3.75 0 01-3.752-3.752z" fill="#BDD4EF"/><path d="M219.918 196.974h-24.824v19.694h24.824v-19.694zm2.553-26.753h-48.402c-1.115 0-2.034.761-2.034 1.692v15.627c0 .932.905 1.693 2.034 1.693h48.402c1.116 0 2.034-.761 2.034-1.693v-15.627c0-.944-.905-1.692-2.034-1.692z" fill="#649EFF"/><path d="M180.865 187.527V171.9c0-.931.905-1.692 2.033-1.692h-8.804c-1.115 0-2.033.761-2.033 1.692v15.627c0 .932.905 1.693 2.033 1.693h8.804c-1.128 0-2.033-.761-2.033-1.693z" fill="#E3EBF8"/><path d="M216.105 200.661H198.93v2.073h17.175v-2.073zm-10.615 3.989h-6.56v2.073h6.56v-2.073z" fill="#fff"/><path d="M189.43 170.221h-2.729v8.24h2.729v-8.24zm5.666 0h-2.729v8.24h2.729v-8.24zm5.67 0h-2.729v8.24h2.729v-8.24zm5.67 0h-2.729v8.24h2.729v-8.24zm5.68 0h-2.729v8.24h2.729v-8.24zm5.666 0h-2.729v8.24h2.729v-8.24z" fill="#83BBFF"/><path d="M185.541 191.594a2.521 2.521 0 00-2.52 2.52v12.464a2.521 2.521 0 002.52 2.52 2.52 2.52 0 002.519-2.52v-12.464a2.52 2.52 0 00-2.519-2.52z" fill="#fff"/></svg>