<svg width="72" height="72" fill="none" xmlns="http://www.w3.org/2000/svg"><path d="M36.023 0a35.846 35.846 0 0125.44 10.53L72 0v31.5H40.48l14.5-14.49C50.12 12.109 43.462 9.005 35.995 9c-11.74.011-21.725 7.523-25.414 18h-.08a26.768 26.768 0 00-1.167 4.5H.278C2.486 13.736 17.6 0 35.978 0h.044zM0 40.5V72l10.537-10.53A35.846 35.846 0 0035.977 72h.046c18.377 0 33.491-13.736 35.7-31.5h-9.058a26.765 26.765 0 01-1.167 4.5h-.08C57.73 55.477 47.746 62.988 36.005 63c-7.467-.005-14.125-3.109-18.984-8.01L31.52 40.5H0z" fill="#fff" fill-opacity=".49"/></svg>