<svg width="28" height="28" fill="none" xmlns="http://www.w3.org/2000/svg"><circle cx="14" cy="14" r="14" fill="#2F89CE"/><path d="M6.546 14.262l3.219 1.2 1.255 4.037c.054.273.382.327.6.164l1.8-1.473c.164-.164.437-.164.655 0l3.218 2.345c.219.164.546.055.6-.218l2.4-11.456c.055-.273-.217-.546-.49-.436L6.546 13.553c-.327.109-.327.6 0 .709zm4.31.6l6.328-3.873c.11-.055.218.109.11.163l-5.183 4.856c-.164.163-.328.381-.328.654l-.163 1.31c0 .163-.273.218-.328 0l-.654-2.401c-.164-.273-.055-.6.218-.71z" fill="#fff"/></svg>