<svg width="28" height="28" fill="none" xmlns="http://www.w3.org/2000/svg"><circle cx="14" cy="14" r="14" fill="#7C509A"/><path d="M18.378 7.382a21.688 21.688 0 00-8.107 0c-1.18.255-2.668 1.682-2.925 2.803a16.008 16.008 0 000 6.623c.308 1.121 1.796 2.548 2.925 2.803.051 0 .103.05.103.101v3.21c0 .153.205.255.307.102l1.54-1.58s1.231-1.273 1.436-1.477c0 0 .052-.05.103-.05 1.54.05 3.13-.103 4.67-.357 1.18-.255 2.667-1.682 2.924-2.803.461-2.19.461-4.433 0-6.624-.308-1.07-1.796-2.496-2.976-2.75zm.051 9.58c-.256.509-.564.916-1.077 1.171l-.462.153a6.494 6.494 0 01-.513-.153c-1.642-.662-3.181-1.58-4.413-2.904a12.251 12.251 0 01-1.693-2.548c-.205-.458-.41-.866-.564-1.325-.154-.407.102-.815.359-1.12a2.37 2.37 0 01.923-.663c.257-.153.513-.05.719.153.41.51.82 1.019 1.128 1.58.206.356.154.764-.205 1.019-.103.05-.154.101-.256.203-.052.051-.154.102-.206.204a.492.492 0 00-.05.459c.41 1.172 1.18 2.089 2.36 2.598.205.102.358.153.615.153.36-.05.513-.459.77-.662.256-.204.564-.204.872-.051.256.153.513.356.82.56.257.204.514.357.77.56.154.103.206.357.103.612zm-2.155-3.822c-.102 0-.051 0 0 0-.205 0-.257-.102-.308-.255 0-.102 0-.255-.051-.357a.968.968 0 00-.36-.56l-.307-.153c-.154-.051-.257-.051-.41-.051-.154-.05-.206-.153-.206-.306 0-.102.154-.204.257-.204.82.051 1.436.51 1.539 1.478v.204c0 .102-.051.204-.154.204zm-.513-2.242c-.257-.102-.513-.204-.82-.255-.104 0-.258-.05-.36-.05-.154 0-.257-.103-.205-.256 0-.152.102-.254.256-.204.513.052.975.153 1.437.357.923.459 1.437 1.223 1.59 2.242v.662c-.05.204-.41.255-.461 0 0-.05-.052-.152-.052-.203 0-.459-.102-.918-.308-1.325a2.752 2.752 0 00-1.077-.968zm2.77 3.057c-.153 0-.256-.153-.256-.306 0-.305-.051-.611-.102-.917-.206-1.63-1.54-2.955-3.13-3.21-.257-.05-.513-.05-.719-.102-.154 0-.359 0-.41-.204-.051-.152.103-.305.256-.305h.103c2.104.05.103 0 0 0 2.155.05 3.95 1.477 4.31 3.617.051.357.103.714.103 1.121.102.153 0 .306-.154.306z" fill="#fff"/></svg>