<svg width="28" height="28" fill="none" xmlns="http://www.w3.org/2000/svg"><circle cx="14" cy="14" r="14" fill="#48C95F"/><path d="M19.549 8.444A7.3 7.3 0 0014.376 6.3c-4.047 0-7.326 3.267-7.326 7.3a7.38 7.38 0 00.973 3.624L7 21l3.893-1.02a7.488 7.488 0 003.483.867c4.046 0 7.324-3.267 7.324-7.299-.051-1.889-.768-3.726-2.151-5.104zm-1.64 7.758c-.153.408-.87.817-1.229.868a2.87 2.87 0 01-1.126-.051c-.256-.102-.615-.204-1.025-.409-1.844-.765-3.022-2.603-3.124-2.756-.103-.102-.768-.97-.768-1.888 0-.92.46-1.327.614-1.532.154-.204.359-.204.512-.204h.359c.102 0 .256-.05.41.306.153.358.512 1.277.563 1.328a.324.324 0 010 .306 1.066 1.066 0 01-.205.306c-.102.102-.205.255-.256.306-.102.102-.205.204-.102.358.102.204.46.765 1.024 1.276.717.612 1.28.816 1.486.918.204.103.307.052.41-.05.102-.103.46-.511.563-.715.102-.204.256-.153.41-.102.153.05 1.075.51 1.229.612.204.102.307.153.358.204.051.154.051.51-.102.92z" fill="#fff"/></svg>